<?xml version="1.0" encoding="UTF-8"?>
<svg xmlns="http://www.w3.org/2000/svg" xmlns:xlink="http://www.w3.org/1999/xlink" width="286.56pt" height="66.24pt" viewBox="153.60 767.52 286.56 66.24">
<path fill-rule="nonzero" fill="rgb(94.337463%, 95.252991%, 90.933228%)" fill-opacity="1" d="M 313.195312 748.105469 L 293.761719 722.507812 L 281.078125 748.316406 Z M 309.160156 732.078125 C 307.320312 724.816406 309.414062 717.628906 315.382812 712.960938 L 309.441406 690.714844 L 295.855469 717.679688 L 310.648438 737.171875 Z M 308.894531 670.5625 L 315.425781 696.441406 C 315.632812 693.539062 315.308594 691.25 315.308594 688.175781 L 315.28125 477.097656 C 295.929688 480.261719 280.101562 480.726562 260.984375 478.882812 L 279.945312 555.207031 Z M 286.570312 475.722656 C 277.675781 473.210938 269.609375 468.5625 262.761719 462.121094 C 259.742188 459.367188 257.226562 456.699219 254.554688 453.242188 L 259.816406 474.460938 C 268.699219 475.625 277.449219 475.953125 286.570312 475.722656 M 255.328125 473.917969 L 243.574219 428.90625 L 242.078125 421.253906 C 225.921875 422.019531 210.300781 419.707031 195.339844 414.410156 L 171.390625 439.535156 L 193.707031 453.640625 C 213.59375 463.804688 232.972656 470.902344 255.328125 473.917969 M 315.3125 472.816406 L 315.273438 398.671875 L 308.871094 400.429688 L 246.644531 420.40625 C 249.105469 454.773438 281.425781 479.777344 315.3125 472.816406 M 237.941406 416.984375 L 212.730469 396.285156 L 198.433594 411.144531 C 211.277344 415.628906 224.601562 417.207031 237.941406 416.984375 M 379.710938 446.640625 C 383.234375 444.480469 386.546875 442.269531 389.878906 439.816406 L 397.78125 433.996094 C 399.09375 433.027344 400.183594 432.207031 401.371094 430.847656 L 387.730469 417.5 L 377.800781 408.4375 C 372.003906 403.144531 366.664062 397.675781 360.433594 392.214844 C 366.222656 406.90625 367.484375 421.648438 362.703125 436.035156 C 359.839844 444.65625 355.441406 452.472656 349.074219 458.839844 C 347.460938 460.449219 346.105469 461.632812 344.753906 464.128906 C 351.320312 461.609375 362.09375 457.152344 368.074219 453.625 L 374.792969 449.660156 Z M 350.917969 450.367188 C 357.632812 440.847656 361.074219 430.296875 361.484375 418.804688 C 361.351562 407.335938 358.445312 396.261719 352.527344 386.441406 L 319.453125 397.0625 L 319.457031 471.742188 C 332.230469 468.359375 342.871094 460.832031 350.917969 450.367188 M 418.035156 415.25 C 427.15625 405.238281 435.4375 394.796875 442.269531 382.660156 C 424.167969 383.058594 407.414062 381.316406 389.53125 376.890625 L 405.636719 427.429688 C 410.210938 423.585938 414.050781 419.617188 418.035156 415.25 M 324.734375 391.046875 L 349.890625 382.84375 C 339.332031 369.628906 324.292969 361.480469 308.027344 360.324219 C 284.433594 358.222656 260.847656 372.285156 251.441406 393.988281 C 248.371094 401.066406 246.539062 408.308594 246.902344 416.039062 Z M 450.460938 377.777344 C 461.546875 376.378906 470.585938 373.417969 479.679688 369.160156 C 486.738281 365.503906 493.09375 361.320312 498.804688 355.402344 L 487.445312 347.0625 C 485.621094 352.707031 481.570312 356.078125 476.414062 358.328125 C 470.679688 360.566406 464.617188 361.074219 458.433594 361.5 Z M 242.273438 415.261719 C 242.804688 404.410156 245.484375 395.726562 249.921875 387.046875 C 256.214844 368.03125 264.3125 350.234375 273.675781 332.082031 L 215.886719 392.984375 C 217.648438 394.851562 219.492188 396.546875 221.460938 398.164062 Z M 453.691406 361.277344 C 433.484375 359.816406 414.824219 353.253906 397.925781 342.621094 C 388.289062 336.742188 379.703125 329.957031 372.015625 322.429688 L 387.914062 371.996094 C 406.660156 377.339844 425.792969 379.554688 445.152344 378.402344 Z M 326.761719 360.308594 L 302.675781 337.414062 L 284.875 320.949219 C 274.460938 338.757812 265.695312 356.703125 258.375 375.734375 C 277.804688 355.714844 302.355469 351.242188 326.761719 360.308594 M 399.953125 423.53125 L 381.34375 365.308594 L 366.203125 317.429688 C 342.953125 330.359375 314.671875 327.195312 294.488281 310.445312 L 287.617188 317.691406 L 330.90625 358.324219 L 354.46875 380.636719 Z M 477.128906 334.476562 L 500.621094 351.722656 L 510.59375 308.683594 L 496.484375 319.277344 L 483.757812 329.042969 C 481.550781 330.734375 479.554688 332.40625 477.128906 334.476562 M 386.039062 329.21875 C 390.082031 332.359375 393.835938 335.0625 398.035156 337.667969 C 408.71875 320.960938 416.746094 303.160156 421.988281 283.945312 C 425.449219 270.445312 427.4375 257.054688 427.636719 242.914062 L 400.648438 266.476562 C 398.3125 286.667969 387.332031 304.039062 370.59375 314.929688 C 375.195312 320.289062 380.328125 324.796875 386.039062 329.21875 M 219.101562 325.054688 C 187.933594 313.675781 168.175781 286.636719 161.484375 254.722656 C 160.28125 248.992188 160.089844 243.800781 159.734375 237.785156 C 157.277344 245.617188 155.613281 253.027344 154.140625 260.871094 C 147.070312 298.550781 158.894531 336.625 185.28125 364.210938 C 193.875 373.195312 202.335938 381.867188 212.28125 390.226562 L 223.40625 378.988281 L 276.109375 323.328125 C 258.449219 331.070312 236.886719 331.550781 219.101562 325.054688 M 311.535156 286.492188 L 349.332031 246.789062 L 361.402344 233.765625 C 341.890625 243.640625 321.371094 244.832031 300.464844 237.660156 C 312.855469 250.917969 316.671875 269.753906 311.535156 286.492188 M 215.3125 231.78125 L 203.71875 230.4375 L 217.277344 241.90625 Z M 209.445312 393.453125 C 199.359375 384.492188 189.996094 375.496094 180.914062 365.574219 C 169.945312 353.585938 161.445312 340.175781 155.582031 324.953125 C 143.386719 291.757812 147.066406 263.472656 157.53125 230.367188 C 127.542969 257.722656 116.460938 299.464844 127.691406 338.136719 C 134.597656 361.914062 149.664062 382.253906 169.71875 396.589844 C 177.414062 402.09375 185.433594 406.472656 194.292969 409.542969 Z M 217.058594 247.101562 L 196.757812 229.707031 L 176.910156 227.539062 C 173.253906 227.140625 169.957031 226.898438 166.101562 226.746094 C 163.457031 241.796875 163.691406 257.117188 174.695312 268.429688 C 181.507812 275.433594 191.332031 277.683594 200.75 275.675781 C 208.46875 274.027344 215.023438 269.257812 217.800781 261.753906 C 218.894531 258.800781 219.875 249.515625 217.058594 247.101562 M 343.882812 320.699219 C 346.953125 320.269531 349.351562 319.902344 351.890625 318.992188 L 357.980469 316.808594 C 366.832031 313.636719 374.785156 307.335938 381.144531 300.347656 C 399.902344 279.734375 401.984375 248.734375 386.609375 225.28125 C 385.457031 223.527344 383.054688 219.984375 381.71875 219 C 381.28125 218.671875 380.121094 219.621094 379.765625 220.066406 C 378.199219 222.003906 376.5625 223.660156 374.871094 225.460938 L 361.402344 239.785156 L 353.582031 248.003906 L 339.832031 262.5 L 331.765625 271.035156 L 328.65625 274.308594 L 318.652344 284.8125 L 309.25 294.804688 L 297.410156 307.507812 C 310.3125 318.285156 327.175781 323.039062 343.882812 320.699219 M 455.546875 356.773438 C 460.699219 345.191406 463.636719 333.988281 466.109375 322.023438 C 469.304688 306.558594 470.546875 291.4375 469.804688 275.550781 C 469.03125 262.570312 467.054688 250.089844 463.902344 237.558594 C 461.851562 230.394531 460.023438 223.476562 456.769531 216.578125 C 448.5625 224.9375 440.582031 232.007812 431.882812 239.335938 C 432.042969 262.757812 427.351562 285.546875 418.570312 307.34375 C 413.96875 318.761719 408.214844 329.214844 401.855469 340.039062 C 416.738281 349.429688 437.765625 356.886719 455.546875 356.773438 M 237.976562 302.910156 L 260.886719 302.777344 C 262.738281 295.003906 263.90625 287.878906 264.824219 280.410156 L 222.429688 227.097656 L 202.6875 202.324219 L 184.503906 213.011719 L 168.105469 222.425781 L 180.855469 223.730469 L 218.867188 228.007812 C 221.691406 244.917969 228.980469 262.457031 213.292969 274.414062 L 229.027344 285.277344 C 235.117188 289.480469 236.378906 295.832031 237.976562 302.910156 M 347.085938 235.039062 C 359.027344 231.394531 369.679688 224.992188 378.28125 215.410156 C 367.054688 204.003906 352.613281 198.492188 336.765625 197.59375 L 331.285156 197.917969 C 325.308594 199.003906 318.78125 199.550781 313.269531 202.484375 L 290.589844 227.734375 C 301.589844 234.921875 313.75 238.042969 326.519531 238 C 333.675781 238.175781 340.285156 237.160156 347.085938 235.039062 M 190.800781 412.984375 C 162.367188 401.21875 139.601562 378.9375 127.652344 350.53125 C 115.105469 320.710938 116.527344 286.476562 131.148438 257.691406 C 138.585938 243.960938 148.1875 232.097656 160.523438 222.605469 C 164.945312 210.40625 169.679688 198.769531 174.722656 186.804688 C 150.683594 198.847656 131.738281 217.695312 118.71875 240.671875 C 107.574219 260.40625 101.78125 282.527344 100.976562 305.230469 C 100.40625 358.550781 125.785156 405.859375 168.011719 437.03125 Z M 286.742188 225.546875 L 335.4375 171.363281 C 324.082031 174.546875 313.875 177.402344 302.53125 177.871094 C 286.628906 178.53125 271.378906 177.167969 255.660156 172.449219 C 257.511719 194.214844 268.707031 213.183594 286.742188 225.546875 M 200.539062 198.773438 L 188.4375 164.671875 L 166.175781 218.921875 Z M 98.386719 330.238281 C 89.945312 274.109375 115.082031 217.242188 164 188.128906 C 168.1875 185.46875 172.230469 183.417969 176.875 181.390625 L 183.734375 164.640625 C 152.445312 172.800781 127.132812 189.773438 107.925781 215.308594 C 101.359375 224.039062 96.339844 233.039062 92.152344 243.027344 C 79.164062 274.011719 78.011719 307.8125 88.207031 339.835938 C 93.636719 356.898438 101.710938 372.351562 112.796875 386.351562 C 117.425781 392.199219 121.761719 398.152344 127.832031 402.601562 C 111.550781 378.722656 102.609375 358.292969 98.386719 330.238281 M 278.820312 225.25 L 272.75 219.148438 C 261.199219 207.550781 253.90625 192.40625 251.636719 176.191406 C 251.417969 174.625 251.773438 172.414062 251.308594 171.582031 C 250.929688 170.898438 249.789062 170.46875 249.082031 170.261719 C 243.285156 168.558594 238.046875 166.203125 232.523438 163.90625 C 230.792969 163.1875 229.136719 162.496094 227.507812 161.554688 L 218.785156 156.519531 C 218.308594 156.441406 217.597656 156.28125 217.441406 156.550781 C 217.324219 156.753906 217.070312 157.644531 217.078125 157.945312 L 217.324219 166.386719 C 217.367188 167.925781 217.976562 169.285156 218.300781 170.65625 L 219.609375 176.175781 C 220.0625 178.097656 220.703125 179.941406 221.484375 181.726562 C 225.375 190.597656 229.089844 196.957031 235.726562 204.066406 C 242.5625 211.390625 248.316406 215.554688 257.550781 219.746094 C 264.316406 222.816406 271.214844 224.722656 278.820312 225.25 M 100.90625 183.65625 L 115.3125 173.476562 L 98.382812 152.40625 L 86.035156 194.035156 Z M 401.34375 260.445312 L 427.445312 237.574219 C 427.53125 220.34375 424.472656 203.863281 419.421875 187.527344 C 414.378906 171.171875 406.90625 156.027344 397.070312 141.871094 C 405.851562 167.269531 400.746094 194.304688 384.074219 215.203125 C 395.347656 227.886719 401.101562 243.296875 401.34375 260.445312 M 455.375 211.914062 C 447.289062 192.761719 436.863281 175.703125 423.757812 160.238281 C 415.316406 150.898438 406.832031 142.183594 397.015625 134.015625 C 418.207031 163.652344 430.261719 197.667969 431.671875 233.957031 C 439.898438 226.839844 447.640625 219.855469 455.375 211.914062 M 381.109375 212.070312 C 401.339844 185.84375 403.0625 151.925781 382.785156 125.085938 L 360.269531 149.953125 L 319.097656 195.871094 C 341.15625 190.0625 364.445312 196.003906 381.109375 212.070312 M 338.710938 165.359375 L 300.683594 101.183594 C 272.566406 112.835938 255.972656 137.292969 255.414062 168.066406 C 283.25 176.179688 311.722656 176.46875 338.710938 165.359375 M 438.292969 172.304688 C 442.195312 164.109375 443.359375 156.160156 442.871094 147.8125 C 440.066406 117.796875 413.910156 96.597656 384.027344 101.355469 C 378.855469 102.179688 374.492188 103.601562 369.511719 106.453125 C 375.449219 109.765625 378.742188 115.117188 383.761719 118.84375 C 393.144531 125.804688 402.183594 132.503906 410.699219 140.644531 C 420.902344 150.390625 429.914062 160.59375 438.292969 172.304688 M 342.652344 163.386719 L 380.148438 121.730469 C 365.988281 105.222656 345.621094 96.335938 324.105469 96.65625 C 317.476562 97.003906 311.328125 98.074219 304.886719 100.121094 Z M 441.007812 176.496094 L 449.414062 189.542969 C 472.078125 153.96875 458.511719 106.230469 419.628906 89.265625 C 397.429688 79.582031 371.542969 82.242188 351.582031 96.800781 C 356.589844 98.914062 360.96875 101.03125 365.628906 103.617188 C 382.160156 95.289062 399.792969 94.277344 416.535156 102.609375 C 443.953125 116.257812 454.832031 149.449219 441.007812 176.496094 M 131.109375 131.324219 L 152.75 117.34375 L 170.117188 105.613281 C 167.121094 97.082031 165.558594 88.882812 164.746094 79.277344 C 158.832031 84.910156 153.847656 90.320312 148.539062 96.160156 L 100.253906 147.828125 L 108.773438 158.296875 C 111.25 144.050781 119.917969 138.550781 131.109375 131.324219 M 268.230469 119.472656 C 258.882812 120.421875 250.742188 119.554688 242.226562 117.710938 C 231.058594 115.382812 220.859375 111.460938 210.558594 106.5 C 198.085938 100.222656 186.574219 92.636719 176.140625 83.390625 C 173.699219 81.230469 171.804688 79.269531 168.945312 77.15625 C 169.863281 86.730469 170.417969 96.25 174.554688 105.066406 C 179.617188 115.851562 187.25 124.726562 195.511719 133.203125 C 210.492188 148.582031 230.800781 160.203125 251.253906 166.714844 C 251.488281 149.148438 257.449219 132.753906 268.230469 119.472656 M 451.65625 194.289062 C 454.503906 199.503906 456.453125 203.792969 458.183594 208.1875 C 467.394531 196.855469 473.371094 184.082031 476.3125 170.277344 C 485.921875 125.179688 459.039062 80.75 414.492188 68.546875 C 399.238281 64.367188 382.75 64.691406 367.3125 69.28125 C 357.089844 72.320312 348.242188 77.261719 339.335938 83.601562 C 342.648438 87.179688 345.789062 90.234375 349.375 93.28125 C 363.628906 83.132812 380.671875 78.351562 397.773438 79.667969 C 433.261719 82.402344 460.980469 110.007812 464.328125 145.375 C 465.964844 162.691406 461.207031 179.714844 451.65625 194.289062 M 343.84375 94.371094 L 333.230469 83.59375 L 302.59375 54.277344 L 268.796875 39.230469 L 291.285156 77.296875 L 302.335938 96.230469 C 315.875 91.730469 329.386719 91.515625 343.84375 94.371094 M 383.066406 50.171875 L 376.691406 36.253906 L 272.613281 36.242188 L 303.703125 50.222656 Z M 420.828125 17.382812 L 372.441406 17.238281 L 387.191406 48.804688 Z M 517.066406 298.628906 L 517.066406 299.410156 C 516.882812 299.796875 516.703125 300.429688 516.523438 301.203125 L 503.753906 356.234375 C 497.726562 362.300781 491.402344 367.515625 483.765625 371.453125 C 475.078125 375.929688 466.125 379.09375 456.460938 380.628906 C 453.4375 381.109375 450.75 381.496094 447.640625 382.199219 C 420.550781 429.394531 372.898438 464.449219 319.34375 476.007812 L 319.394531 531.371094 L 319.261719 586.019531 L 319.453125 715.15625 C 306.359375 722.964844 315.496094 738.140625 319.664062 748.582031 L 436.207031 748.574219 C 437.007812 749.71875 437.027344 751.171875 436.445312 752.625 L 158.410156 752.628906 C 157.808594 751.542969 157.828125 750.179688 158.097656 748.582031 L 276.0625 748.582031 L 307.980469 683.808594 L 257.695312 483.308594 L 256.019531 478.117188 C 246.761719 476.566406 238.082031 475.050781 229.121094 472.449219 C 191.371094 461.488281 173.960938 446.679688 146.101562 423.894531 L 133.472656 413.5625 C 119.863281 402.433594 108.601562 389.109375 99.300781 374.050781 C 87.230469 354.511719 80.167969 332.589844 77.96875 309.726562 C 77.84375 308.402344 78.367188 301.605469 77.488281 302.332031 L 77.488281 291.609375 L 78.152344 282.457031 C 80.734375 246.796875 97.875 213.648438 125.230469 190.695312 L 128.476562 187.96875 C 144.933594 174.160156 165.257812 165.007812 186.066406 159.972656 L 188.96875 153.417969 L 204.210938 197.21875 C 205.011719 199.523438 206.953125 201.09375 208.503906 203.050781 L 248.578125 253.578125 L 268.816406 278.933594 C 268.023438 288.574219 266.4375 297.566406 263.753906 306.820312 L 235.074219 306.808594 L 232.121094 296.636719 C 231.429688 294.253906 230.203125 291.203125 228.183594 289.605469 C 221.949219 284.679688 215.4375 280.523438 208.957031 276.554688 C 204.078125 280.082031 193.457031 280 188.136719 279.402344 C 181.058594 278.613281 175.605469 274.472656 170.019531 269.84375 C 180.914062 300.269531 207.855469 322.871094 239.867188 325.402344 C 243.21875 325.667969 246.121094 325.984375 249.632812 325.578125 C 261.332031 324.210938 273.519531 322.101562 283.390625 315.128906 C 289.453125 310.847656 294.015625 304.722656 298.9375 299.210938 C 307.019531 290.164062 310.859375 278.75 309.453125 266.585938 C 307.726562 251.609375 297.660156 235.566406 283.433594 230.226562 L 278.070312 229.378906 L 271.746094 228.257812 C 263.003906 226.707031 255.050781 223.332031 247.449219 218.6875 C 224.699219 204.792969 211.675781 179.371094 213.015625 152.835938 C 202.199219 145.394531 192.664062 137.054688 184.527344 127.003906 C 183.789062 126.21875 183.007812 125.300781 182.304688 124.46875 C 178.5625 119.511719 175.214844 114.609375 172.09375 109.078125 L 146.425781 126.125 L 130.933594 136.007812 C 120.621094 142.582031 110.382812 151.117188 113.441406 164.460938 L 121.101562 174.214844 L 79.089844 203.636719 L 95.640625 147.109375 L 167.75 69.992188 C 190.015625 92.976562 218.171875 110.074219 250.046875 115.238281 C 281.289062 119.074219 272.042969 107.707031 298.785156 97.859375 L 259.902344 32.207031 L 308.992188 32.210938 L 375.007812 32.269531 L 366.449219 13.34375 L 431.304688 13.375 L 387.527344 53.996094 L 308.632812 54.203125 L 336.113281 81.011719 C 344.597656 74.582031 353.636719 69.765625 363.5625 66.285156 C 380.460938 60.597656 398.273438 60.191406 415.515625 64.578125 C 432.78125 69.890625 445.5 77.390625 458.191406 90.351562 C 474.570312 108.316406 483.648438 132.234375 482.246094 156.683594 C 481.066406 177.25 473.535156 196.671875 459.882812 212.242188 C 468.625 233.972656 473.167969 256.578125 473.992188 279.914062 C 474.5 294.375 472.941406 308.09375 470.355469 322.269531 C 468.183594 334.28125 464.585938 345.410156 460.132812 357.128906 C 468.40625 356.800781 483 355.199219 483.417969 344.332031 L 470.355469 334.175781 L 487.515625 320.945312 L 514.484375 300.234375 C 515.347656 299.574219 516.277344 299.039062 517.066406 298.628906 "/>
<path fill-rule="nonzero" fill="rgb(54.640198%, 45.556641%, 29.109192%)" fill-opacity="1" d="M 308.894531 670.5625 L 279.941406 555.207031 L 260.984375 478.882812 C 280.101562 480.726562 295.925781 480.261719 315.28125 477.097656 L 315.308594 688.175781 C 315.308594 691.25 315.632812 693.535156 315.425781 696.441406 Z M 308.894531 670.5625 "/>
<path fill-rule="nonzero" fill="rgb(54.640198%, 45.556641%, 29.109192%)" fill-opacity="1" d="M 219.101562 325.054688 C 236.882812 331.550781 258.449219 331.070312 276.109375 323.328125 L 223.40625 378.988281 L 212.28125 390.226562 C 202.335938 381.867188 193.871094 373.195312 185.28125 364.210938 C 158.890625 336.625 147.070312 298.550781 154.140625 260.871094 C 155.613281 253.027344 157.277344 245.621094 159.734375 237.785156 C 160.089844 243.800781 160.28125 248.992188 161.480469 254.722656 C 168.175781 286.636719 187.933594 313.675781 219.101562 325.054688 "/>
<path fill-rule="nonzero" fill="rgb(54.640198%, 45.556641%, 29.109192%)" fill-opacity="1" d="M 190.800781 412.984375 L 168.011719 437.03125 C 125.785156 405.859375 100.40625 358.550781 100.976562 305.230469 C 101.78125 282.527344 107.574219 260.40625 118.71875 240.671875 C 131.738281 217.699219 150.683594 198.847656 174.722656 186.804688 C 169.679688 198.769531 164.945312 210.40625 160.523438 222.605469 C 148.1875 232.097656 138.585938 243.960938 131.148438 257.691406 C 116.527344 286.480469 115.105469 320.710938 127.652344 350.53125 C 139.601562 378.9375 162.367188 401.21875 190.800781 412.984375 "/>
<path fill-rule="nonzero" fill="rgb(20.933533%, 24.909973%, 26.298523%)" fill-opacity="1" d="M 455.546875 356.773438 C 437.765625 356.890625 416.738281 349.429688 401.855469 340.039062 C 408.21875 329.214844 413.96875 318.761719 418.570312 307.34375 C 427.351562 285.546875 432.046875 262.757812 431.882812 239.335938 C 440.582031 232.007812 448.5625 224.9375 456.769531 216.578125 C 460.023438 223.476562 461.851562 230.394531 463.902344 237.558594 C 467.050781 250.089844 469.03125 262.570312 469.804688 275.550781 C 470.546875 291.4375 469.300781 306.558594 466.109375 322.023438 C 463.636719 333.988281 460.703125 345.191406 455.546875 356.773438 "/>
<path fill-rule="nonzero" fill="rgb(13.644409%, 27.981567%, 48.516846%)" fill-opacity="1" d="M 343.882812 320.699219 C 327.175781 323.039062 310.3125 318.285156 297.410156 307.507812 L 309.25 294.808594 L 318.652344 284.8125 L 328.65625 274.308594 L 331.765625 271.035156 L 339.832031 262.5 L 353.582031 248.003906 L 361.402344 239.785156 L 374.871094 225.460938 C 376.5625 223.664062 378.199219 222.003906 379.765625 220.066406 C 380.125 219.621094 381.28125 218.671875 381.71875 218.996094 C 383.054688 219.984375 385.457031 223.527344 386.605469 225.28125 C 401.988281 248.734375 399.902344 279.734375 381.144531 300.347656 C 374.785156 307.335938 366.832031 313.636719 357.980469 316.808594 L 351.890625 318.992188 C 349.351562 319.902344 346.953125 320.269531 343.882812 320.699219 "/>
<path fill-rule="nonzero" fill="rgb(94.337463%, 95.252991%, 90.933228%)" fill-opacity="1" d="M 209.445312 393.453125 L 194.292969 409.542969 C 185.433594 406.472656 177.414062 402.09375 169.71875 396.589844 C 149.664062 382.253906 134.597656 361.914062 127.691406 338.136719 C 116.460938 299.464844 127.542969 257.722656 157.53125 230.367188 C 147.066406 263.472656 143.386719 291.757812 155.582031 324.953125 C 161.445312 340.175781 169.945312 353.589844 180.914062 365.574219 C 189.996094 375.496094 199.359375 384.492188 209.445312 393.453125 "/>
<path fill-rule="nonzero" fill="rgb(94.337463%, 95.252991%, 90.933228%)" fill-opacity="1" d="M 399.953125 423.527344 L 354.46875 380.636719 L 330.90625 358.324219 L 287.617188 317.691406 L 294.488281 310.445312 C 314.671875 327.195312 342.953125 330.363281 366.203125 317.433594 L 381.34375 365.308594 Z M 399.953125 423.527344 "/>
<path fill-rule="nonzero" fill="rgb(94.337463%, 95.252991%, 90.933228%)" fill-opacity="1" d="M 338.710938 165.359375 C 311.722656 176.46875 283.25 176.179688 255.414062 168.066406 C 255.972656 137.292969 272.566406 112.835938 300.683594 101.183594 Z M 338.710938 165.359375 "/>
<path fill-rule="nonzero" fill="rgb(20.933533%, 24.909973%, 26.298523%)" fill-opacity="1" d="M 98.390625 330.238281 C 102.609375 358.292969 111.550781 378.722656 127.832031 402.601562 C 121.757812 398.152344 117.425781 392.199219 112.796875 386.351562 C 101.710938 372.351562 93.636719 356.894531 88.207031 339.835938 C 78.011719 307.8125 79.164062 274.011719 92.152344 243.03125 C 96.339844 233.039062 101.359375 224.035156 107.925781 215.308594 C 127.132812 189.773438 152.445312 172.800781 183.734375 164.640625 L 176.875 181.390625 C 172.230469 183.417969 168.1875 185.46875 164 188.128906 C 115.082031 217.238281 89.945312 274.109375 98.390625 330.238281 "/>
<path fill-rule="nonzero" fill="rgb(94.337463%, 95.252991%, 90.933228%)" fill-opacity="1" d="M 315.3125 472.816406 C 281.425781 479.777344 249.105469 454.773438 246.644531 420.402344 L 308.871094 400.429688 L 315.273438 398.671875 Z M 315.3125 472.816406 "/>
<path fill-rule="nonzero" fill="rgb(94.337463%, 95.252991%, 90.933228%)" fill-opacity="1" d="M 381.109375 212.070312 C 364.445312 196.003906 341.15625 190.0625 319.097656 195.871094 L 360.269531 149.953125 L 382.785156 125.085938 C 403.0625 151.925781 401.339844 185.84375 381.109375 212.070312 "/>
<path fill-rule="nonzero" fill="rgb(54.640198%, 45.556641%, 29.109192%)" fill-opacity="1" d="M 451.65625 194.289062 C 461.207031 179.714844 465.964844 162.691406 464.328125 145.375 C 460.980469 110.007812 433.261719 82.402344 397.777344 79.667969 C 380.671875 78.351562 363.628906 83.132812 349.375 93.28125 C 345.789062 90.234375 342.652344 87.183594 339.335938 83.601562 C 348.242188 77.261719 357.089844 72.320312 367.3125 69.28125 C 382.75 64.691406 399.238281 64.367188 414.496094 68.546875 C 459.039062 80.75 485.921875 125.179688 476.3125 170.277344 C 473.371094 184.082031 467.394531 196.855469 458.183594 208.1875 C 456.453125 203.792969 454.503906 199.503906 451.65625 194.289062 "/>
<path fill-rule="nonzero" fill="rgb(20.933533%, 24.909973%, 26.298523%)" fill-opacity="1" d="M 324.734375 391.046875 L 246.902344 416.039062 C 246.539062 408.308594 248.371094 401.066406 251.441406 393.988281 C 260.847656 372.285156 284.433594 358.222656 308.027344 360.324219 C 324.292969 361.480469 339.332031 369.628906 349.890625 382.84375 Z M 324.734375 391.046875 "/>
<path fill-rule="nonzero" fill="rgb(20.933533%, 24.909973%, 26.298523%)" fill-opacity="1" d="M 255.328125 473.917969 C 232.972656 470.902344 213.59375 463.804688 193.707031 453.636719 L 171.390625 439.539062 L 195.339844 414.414062 C 210.296875 419.703125 225.917969 422.019531 242.078125 421.25 L 243.574219 428.90625 Z M 255.328125 473.917969 "/>
<path fill-rule="nonzero" fill="rgb(54.640198%, 45.556641%, 29.109192%)" fill-opacity="1" d="M 350.914062 450.367188 C 342.871094 460.832031 332.230469 468.359375 319.460938 471.742188 L 319.453125 397.0625 L 352.527344 386.441406 C 358.445312 396.261719 361.351562 407.335938 361.484375 418.808594 C 361.078125 430.296875 357.632812 440.847656 350.914062 450.367188 "/>
<path fill-rule="nonzero" fill="rgb(20.933533%, 24.909973%, 26.298523%)" fill-opacity="1" d="M 342.652344 163.386719 L 304.886719 100.121094 C 311.328125 98.074219 317.476562 97.003906 324.105469 96.65625 C 345.621094 96.335938 365.988281 105.222656 380.148438 121.730469 Z M 342.652344 163.386719 "/>
<path fill-rule="nonzero" fill="rgb(54.640198%, 45.556641%, 29.109192%)" fill-opacity="1" d="M 261.324219 291.605469 C 262.707031 289.296875 261.8125 287.742188 261.070312 286.007812 C 259.058594 282.808594 256.5 280.339844 253.089844 278.296875 C 252.933594 285.035156 255.71875 287.851562 261.324219 291.605469 M 237.980469 302.910156 C 236.378906 295.832031 235.117188 289.480469 229.027344 285.277344 L 213.292969 274.414062 C 228.980469 262.457031 221.691406 244.917969 218.867188 228.011719 L 180.855469 223.730469 L 168.105469 222.425781 L 184.503906 213.011719 L 202.6875 202.324219 L 222.429688 227.097656 L 264.824219 280.410156 C 263.90625 287.878906 262.738281 295.003906 260.890625 302.777344 Z M 237.980469 302.910156 "/>
<path fill-rule="nonzero" fill="rgb(54.640198%, 45.556641%, 29.109192%)" fill-opacity="1" d="M 347.085938 235.039062 C 340.289062 237.160156 333.675781 238.175781 326.519531 238 C 313.75 238.042969 301.589844 234.921875 290.589844 227.734375 L 313.269531 202.484375 C 318.785156 199.550781 325.3125 199.003906 331.285156 197.917969 L 336.765625 197.59375 C 352.617188 198.492188 367.058594 204.003906 378.28125 215.410156 C 369.679688 224.992188 359.027344 231.394531 347.085938 235.039062 "/>
<path fill-rule="nonzero" fill="rgb(20.933533%, 24.909973%, 26.298523%)" fill-opacity="1" d="M 401.34375 260.445312 C 401.101562 243.296875 395.347656 227.886719 384.074219 215.203125 C 400.746094 194.304688 405.851562 167.269531 397.070312 141.871094 C 406.90625 156.027344 414.378906 171.175781 419.421875 187.527344 C 424.472656 203.863281 427.53125 220.34375 427.445312 237.574219 Z M 401.34375 260.445312 "/>
<path fill-rule="nonzero" fill="rgb(94.337463%, 95.252991%, 90.933228%)" fill-opacity="1" d="M 386.039062 329.21875 C 380.328125 324.796875 375.195312 320.289062 370.59375 314.929688 C 387.332031 304.039062 398.3125 286.667969 400.648438 266.476562 L 427.636719 242.914062 C 427.4375 257.054688 425.449219 270.441406 421.988281 283.945312 C 416.746094 303.160156 408.71875 320.960938 398.035156 337.667969 C 393.835938 335.0625 390.082031 332.355469 386.039062 329.21875 "/>
<path fill-rule="nonzero" fill="rgb(20.933533%, 24.909973%, 26.298523%)" fill-opacity="1" d="M 441.007812 176.5 C 454.832031 149.449219 443.953125 116.257812 416.535156 102.609375 C 399.792969 94.277344 382.160156 95.289062 365.628906 103.617188 C 360.96875 101.03125 356.589844 98.914062 351.578125 96.800781 C 371.542969 82.242188 397.433594 79.582031 419.628906 89.265625 C 458.511719 106.230469 472.078125 153.964844 449.414062 189.542969 Z M 441.007812 176.5 "/>
<path fill-rule="nonzero" fill="rgb(20.933533%, 24.909973%, 26.298523%)" fill-opacity="1" d="M 286.742188 225.546875 C 268.707031 213.183594 257.511719 194.210938 255.660156 172.453125 C 271.378906 177.167969 286.628906 178.53125 302.535156 177.871094 C 313.871094 177.402344 324.082031 174.546875 335.4375 171.363281 Z M 286.742188 225.546875 "/>
<path fill-rule="nonzero" fill="rgb(20.933533%, 24.909973%, 26.298523%)" fill-opacity="1" d="M 217.054688 247.101562 C 219.875 249.515625 218.894531 258.800781 217.800781 261.75 C 215.023438 269.257812 208.46875 274.027344 200.75 275.675781 C 191.332031 277.683594 181.507812 275.433594 174.695312 268.429688 C 163.691406 257.117188 163.457031 241.796875 166.101562 226.746094 C 169.957031 226.898438 173.25 227.140625 176.910156 227.542969 L 196.757812 229.707031 Z M 217.054688 247.101562 "/>
<path fill-rule="nonzero" fill="rgb(54.640198%, 45.556641%, 29.109192%)" fill-opacity="1" d="M 453.691406 361.277344 L 445.152344 378.398438 C 425.792969 379.554688 406.660156 377.339844 387.914062 371.996094 L 372.015625 322.429688 C 379.703125 329.957031 388.289062 336.742188 397.925781 342.621094 C 414.824219 353.25 433.484375 359.816406 453.691406 361.277344 "/>
<path fill-rule="nonzero" fill="rgb(13.644409%, 27.981567%, 48.516846%)" fill-opacity="1" d="M 278.820312 225.25 C 271.214844 224.722656 264.316406 222.816406 257.550781 219.746094 C 248.316406 215.554688 242.5625 211.390625 235.726562 204.066406 C 229.089844 196.957031 225.375 190.597656 221.484375 181.726562 C 220.703125 179.941406 220.066406 178.097656 219.609375 176.175781 L 218.300781 170.65625 C 217.972656 169.285156 217.367188 167.925781 217.320312 166.386719 L 217.078125 157.945312 C 217.070312 157.644531 217.324219 156.753906 217.441406 156.550781 C 217.601562 156.285156 218.308594 156.441406 218.789062 156.519531 L 227.507812 161.554688 C 229.140625 162.496094 230.792969 163.1875 232.523438 163.90625 C 238.046875 166.203125 243.285156 168.558594 249.082031 170.261719 C 249.789062 170.46875 250.929688 170.898438 251.308594 171.582031 C 251.773438 172.414062 251.417969 174.625 251.636719 176.191406 C 253.90625 192.40625 261.199219 207.550781 272.746094 219.148438 Z M 278.820312 225.25 "/>
<path fill-rule="nonzero" fill="rgb(20.933533%, 24.909973%, 26.298523%)" fill-opacity="1" d="M 343.847656 94.371094 C 329.386719 91.515625 315.875 91.730469 302.335938 96.230469 L 291.285156 77.296875 L 268.796875 39.230469 L 302.59375 54.277344 L 333.230469 83.59375 Z M 343.847656 94.371094 "/>
<path fill-rule="nonzero" fill="rgb(54.640198%, 45.556641%, 29.109192%)" fill-opacity="1" d="M 455.375 211.914062 C 447.640625 219.855469 439.898438 226.84375 431.671875 233.957031 C 430.261719 197.667969 418.207031 163.652344 397.015625 134.015625 C 406.832031 142.183594 415.316406 150.898438 423.757812 160.238281 C 436.863281 175.703125 447.292969 192.761719 455.375 211.914062 "/>
<path fill-rule="nonzero" fill="rgb(54.640198%, 45.556641%, 29.109192%)" fill-opacity="1" d="M 418.035156 415.25 C 414.050781 419.617188 410.210938 423.585938 405.636719 427.429688 L 389.53125 376.894531 C 407.414062 381.320312 424.167969 383.058594 442.269531 382.660156 C 435.4375 394.796875 427.15625 405.238281 418.035156 415.25 "/>
<path fill-rule="nonzero" fill="rgb(13.644409%, 27.981567%, 48.516846%)" fill-opacity="1" d="M 379.710938 446.640625 L 374.792969 449.660156 L 368.074219 453.625 C 362.09375 457.152344 351.320312 461.613281 344.753906 464.128906 C 346.105469 461.632812 347.460938 460.449219 349.070312 458.839844 C 355.441406 452.472656 359.839844 444.660156 362.703125 436.035156 C 367.484375 421.648438 366.222656 406.90625 360.433594 392.214844 C 366.667969 397.675781 372.003906 403.144531 377.800781 408.4375 L 387.730469 417.5 L 401.371094 430.847656 C 400.183594 432.207031 399.09375 433.027344 397.78125 433.996094 L 389.878906 439.816406 C 386.550781 442.265625 383.234375 444.480469 379.710938 446.640625 "/>
<path fill-rule="nonzero" fill="rgb(94.337463%, 95.252991%, 90.933228%)" fill-opacity="1" d="M 242.273438 415.261719 L 221.460938 398.164062 C 219.492188 396.546875 217.648438 394.851562 215.882812 392.984375 L 273.675781 332.082031 C 264.3125 350.234375 256.214844 368.03125 249.921875 387.046875 C 245.484375 395.726562 242.804688 404.410156 242.273438 415.261719 "/>
<path fill-rule="nonzero" fill="rgb(54.640198%, 45.556641%, 29.109192%)" fill-opacity="1" d="M 326.761719 360.308594 C 302.355469 351.242188 277.804688 355.714844 258.375 375.734375 C 265.695312 356.703125 274.460938 338.757812 284.875 320.949219 L 302.675781 337.414062 Z M 326.761719 360.308594 "/>
<path fill-rule="nonzero" fill="rgb(54.640198%, 45.556641%, 29.109192%)" fill-opacity="1" d="M 311.535156 286.492188 C 316.675781 269.753906 312.855469 250.917969 300.464844 237.660156 C 321.371094 244.832031 341.886719 243.640625 361.402344 233.765625 L 349.332031 246.789062 Z M 311.535156 286.492188 "/>
<path fill-rule="nonzero" fill="rgb(54.640198%, 45.556641%, 29.109192%)" fill-opacity="1" d="M 200.539062 198.773438 L 166.175781 218.921875 L 188.4375 164.671875 Z M 200.539062 198.773438 "/>
<path fill-rule="nonzero" fill="rgb(20.933533%, 24.909973%, 26.298523%)" fill-opacity="1" d="M 477.128906 334.476562 C 479.554688 332.40625 481.550781 330.734375 483.757812 329.042969 L 496.484375 319.277344 L 510.59375 308.683594 L 500.621094 351.722656 Z M 477.128906 334.476562 "/>
<path fill-rule="nonzero" fill="rgb(54.640198%, 45.556641%, 29.109192%)" fill-opacity="1" d="M 450.460938 377.777344 L 458.433594 361.5 C 464.617188 361.074219 470.679688 360.566406 476.414062 358.328125 C 481.570312 356.078125 485.621094 352.707031 487.445312 347.0625 L 498.804688 355.402344 C 493.09375 361.320312 486.738281 365.503906 479.679688 369.160156 C 470.585938 373.417969 461.546875 376.378906 450.460938 377.777344 "/>
<path fill-rule="nonzero" fill="rgb(20.933533%, 24.909973%, 26.298523%)" fill-opacity="1" d="M 313.195312 748.105469 L 281.078125 748.316406 L 293.761719 722.507812 Z M 313.195312 748.105469 "/>
<path fill-rule="nonzero" fill="rgb(54.640198%, 45.556641%, 29.109192%)" fill-opacity="1" d="M 309.160156 732.078125 L 310.648438 737.171875 L 295.855469 717.679688 L 309.441406 690.710938 L 315.382812 712.960938 C 309.414062 717.628906 307.320312 724.816406 309.160156 732.078125 "/>
<path fill-rule="nonzero" fill="rgb(94.337463%, 95.252991%, 90.933228%)" fill-opacity="1" d="M 237.941406 416.984375 C 224.601562 417.207031 211.277344 415.628906 198.433594 411.144531 L 212.730469 396.285156 Z M 237.941406 416.984375 "/>
<path fill-rule="nonzero" fill="rgb(54.640198%, 45.556641%, 29.109192%)" fill-opacity="1" d="M 286.570312 475.722656 C 277.449219 475.953125 268.699219 475.625 259.816406 474.460938 L 254.554688 453.242188 C 257.226562 456.699219 259.742188 459.367188 262.761719 462.121094 C 269.609375 468.5625 277.671875 473.210938 286.570312 475.722656 "/>
<path fill-rule="nonzero" fill="rgb(94.337463%, 95.252991%, 90.933228%)" fill-opacity="1" d="M 215.308594 231.78125 L 217.277344 241.90625 L 203.71875 230.4375 Z M 215.308594 231.78125 "/>
<path fill-rule="nonzero" fill="rgb(12.617493%, 14.002991%, 14.807129%)" fill-opacity="1" d="M 261.324219 291.605469 C 255.71875 287.851562 252.933594 285.035156 253.089844 278.296875 C 256.5 280.339844 259.058594 282.808594 261.070312 286.007812 C 261.8125 287.742188 262.707031 289.296875 261.324219 291.605469 "/>
<path fill-rule="nonzero" fill="rgb(54.640198%, 45.556641%, 29.109192%)" fill-opacity="1" d="M 268.230469 119.472656 C 257.449219 132.753906 251.488281 149.148438 251.253906 166.714844 C 230.800781 160.203125 210.492188 148.582031 195.511719 133.203125 C 187.25 124.726562 179.617188 115.851562 174.554688 105.066406 C 170.417969 96.25 169.863281 86.730469 168.945312 77.15625 C 171.804688 79.273438 173.699219 81.230469 176.140625 83.390625 C 186.574219 92.636719 198.089844 100.222656 210.558594 106.5 C 220.859375 111.460938 231.058594 115.382812 242.226562 117.710938 C 250.742188 119.554688 258.882812 120.421875 268.230469 119.472656 "/>
<path fill-rule="nonzero" fill="rgb(54.640198%, 45.556641%, 29.109192%)" fill-opacity="1" d="M 383.066406 50.171875 L 303.703125 50.222656 L 272.613281 36.242188 L 376.691406 36.253906 Z M 383.066406 50.171875 "/>
<path fill-rule="nonzero" fill="rgb(20.933533%, 24.909973%, 26.298523%)" fill-opacity="1" d="M 131.109375 131.324219 C 119.917969 138.550781 111.25 144.054688 108.773438 158.296875 L 100.25 147.828125 L 148.539062 96.160156 C 153.847656 90.320312 158.832031 84.910156 164.746094 79.277344 C 165.558594 88.882812 167.121094 97.082031 170.117188 105.613281 L 152.75 117.34375 Z M 131.109375 131.324219 "/>
<path fill-rule="nonzero" fill="rgb(54.640198%, 45.556641%, 29.109192%)" fill-opacity="1" d="M 420.828125 17.382812 L 387.191406 48.804688 L 372.441406 17.242188 Z M 420.828125 17.382812 "/>
<path fill-rule="nonzero" fill="rgb(54.640198%, 45.556641%, 29.109192%)" fill-opacity="1" d="M 100.90625 183.65625 L 86.035156 194.035156 L 98.382812 152.40625 L 115.3125 173.476562 Z M 100.90625 183.65625 "/>
<path fill-rule="nonzero" fill="rgb(94.337463%, 95.252991%, 90.933228%)" fill-opacity="1" d="M 164.390625 768.121094 L 164.390625 821.628906 L 183.78125 821.628906 L 183.78125 828.175781 L 157.585938 828.175781 L 157.585938 768.121094 Z M 164.390625 768.121094 "/>
<path fill-rule="nonzero" fill="rgb(94.337463%, 95.252991%, 90.933228%)" fill-opacity="1" d="M 194.375 828.175781 L 187.570312 828.175781 L 187.570312 768.121094 L 194.375 768.121094 Z M 194.375 828.175781 "/>
<path fill-rule="nonzero" fill="rgb(94.337463%, 95.252991%, 90.933228%)" fill-opacity="1" d="M 204.976562 821.628906 L 208.679688 821.628906 C 210.574219 821.628906 212.46875 821.3125 214.367188 820.679688 C 216.261719 820.050781 217.96875 819.085938 219.492188 817.796875 C 221.015625 816.503906 222.25 814.851562 223.199219 812.839844 C 224.144531 810.828125 224.621094 808.445312 224.621094 805.6875 C 224.621094 802.929688 224.144531 800.5625 223.199219 798.582031 C 222.25 796.597656 221.027344 794.949219 219.535156 793.625 C 218.042969 792.304688 216.335938 791.328125 214.410156 790.695312 C 212.484375 790.0625 210.574219 789.746094 208.679688 789.746094 L 204.976562 789.746094 Z M 212.042969 783.199219 C 213.246094 783.199219 214.265625 782.78125 215.097656 781.949219 C 215.929688 781.117188 216.347656 780.125 216.347656 778.976562 C 216.347656 777.769531 215.917969 776.75 215.054688 775.917969 C 214.195312 775.085938 213.1875 774.667969 212.042969 774.667969 L 204.976562 774.667969 L 204.976562 783.199219 Z M 198.167969 768.121094 L 212.042969 768.121094 C 213.589844 768.121094 215.039062 768.394531 216.390625 768.9375 C 217.742188 769.484375 218.917969 770.246094 219.925781 771.222656 C 220.929688 772.199219 221.71875 773.347656 222.292969 774.667969 C 222.867188 775.988281 223.15625 777.425781 223.15625 778.976562 C 223.15625 781.734375 222.234375 784.117188 220.398438 786.128906 C 223.785156 787.96875 226.472656 790.582031 228.453125 793.96875 C 230.4375 797.359375 231.425781 801.265625 231.425781 805.6875 C 231.425781 808.960938 230.851562 811.980469 229.703125 814.734375 C 228.554688 817.492188 226.960938 819.863281 224.921875 821.84375 C 222.882812 823.824219 220.484375 825.378906 217.726562 826.496094 C 214.96875 827.617188 211.953125 828.175781 208.679688 828.175781 L 198.167969 828.175781 Z M 198.167969 768.121094 "/>
<path fill-rule="nonzero" fill="rgb(94.337463%, 95.252991%, 90.933228%)" fill-opacity="1" d="M 260.550781 768.121094 L 260.550781 774.667969 L 241.164062 774.667969 L 241.164062 806.550781 L 257.191406 806.550781 L 257.191406 813.097656 L 241.164062 813.097656 L 241.164062 821.628906 L 260.550781 821.628906 L 260.550781 828.175781 L 234.359375 828.175781 L 234.359375 768.121094 Z M 260.550781 768.121094 "/>
<path fill-rule="nonzero" fill="rgb(94.337463%, 95.252991%, 90.933228%)" fill-opacity="1" d="M 271.148438 806.550781 L 274.855469 806.550781 C 276.75 806.550781 278.660156 806.234375 280.585938 805.601562 C 282.507812 804.96875 284.214844 803.996094 285.710938 802.671875 C 287.203125 801.351562 288.425781 799.699219 289.371094 797.71875 C 290.320312 795.734375 290.796875 793.367188 290.796875 790.609375 C 290.796875 787.851562 290.320312 785.480469 289.371094 783.5 C 288.425781 781.519531 287.191406 779.867188 285.667969 778.546875 C 284.144531 777.226562 282.4375 776.25 280.542969 775.617188 C 278.644531 774.984375 276.75 774.667969 274.855469 774.667969 L 271.148438 774.667969 Z M 264.339844 768.121094 L 274.855469 768.121094 C 278.128906 768.121094 281.144531 768.679688 283.902344 769.800781 C 286.660156 770.921875 289.058594 772.472656 291.097656 774.453125 C 293.136719 776.433594 294.730469 778.804688 295.878906 781.5625 C 297.027344 784.320312 297.601562 787.335938 297.601562 790.609375 C 297.601562 795.261719 296.496094 799.339844 294.285156 802.84375 C 292.074219 806.351562 289.101562 808.992188 285.367188 810.773438 L 297.601562 828.175781 L 289.589844 828.175781 L 279.25 812.753906 C 277.925781 812.984375 276.578125 813.097656 275.199219 813.097656 L 271.148438 813.097656 L 271.148438 828.175781 L 264.339844 828.175781 Z M 264.339844 768.121094 "/>
<path fill-rule="nonzero" fill="rgb(94.337463%, 95.252991%, 90.933228%)" fill-opacity="1" d="M 336.550781 768.121094 L 316.214844 828.4375 L 295.792969 768.121094 L 302.597656 768.121094 L 316.214844 808.273438 L 329.742188 768.121094 Z M 336.550781 768.121094 "/>
<path fill-rule="nonzero" fill="rgb(94.337463%, 95.252991%, 90.933228%)" fill-opacity="1" d="M 346.285156 828.175781 L 339.476562 828.175781 L 339.476562 768.121094 L 346.285156 768.121094 Z M 346.285156 828.175781 "/>
<path fill-rule="nonzero" fill="rgb(94.337463%, 95.252991%, 90.933228%)" fill-opacity="1" d="M 356.882812 768.121094 L 356.882812 821.628906 L 376.269531 821.628906 L 376.269531 828.175781 L 350.074219 828.175781 L 350.074219 768.121094 Z M 356.882812 768.121094 "/>
<path fill-rule="nonzero" fill="rgb(94.337463%, 95.252991%, 90.933228%)" fill-opacity="1" d="M 386.867188 768.121094 L 386.867188 821.628906 L 406.253906 821.628906 L 406.253906 828.175781 L 380.0625 828.175781 L 380.0625 768.121094 Z M 386.867188 768.121094 "/>
<path fill-rule="nonzero" fill="rgb(94.337463%, 95.252991%, 90.933228%)" fill-opacity="1" d="M 436.238281 768.121094 L 436.238281 774.667969 L 416.851562 774.667969 L 416.851562 806.550781 L 432.878906 806.550781 L 432.878906 813.097656 L 416.851562 813.097656 L 416.851562 821.628906 L 436.238281 821.628906 L 436.238281 828.175781 L 410.042969 828.175781 L 410.042969 768.121094 Z M 436.238281 768.121094 "/>
</svg>
