<?xml version="1.0" encoding="UTF-8"?>
<svg xmlns="http://www.w3.org/2000/svg" xmlns:xlink="http://www.w3.org/1999/xlink" width="286.56pt" height="66.24pt" viewBox="153.60 767.52 286.56 66.24">
<path fill-rule="nonzero" fill="rgb(12.617493%, 14.002991%, 14.807129%)" fill-opacity="1" d="M 501.921875 351.277344 L 478.277344 333.921875 C 480.71875 331.84375 482.726562 330.160156 484.949219 328.457031 L 497.761719 318.632812 L 511.953125 307.964844 Z M 480.84375 368.832031 C 471.691406 373.113281 462.59375 376.097656 451.441406 377.503906 L 459.457031 361.125 C 465.683594 360.695312 471.789062 360.183594 477.558594 357.925781 C 482.742188 355.660156 486.824219 352.269531 488.664062 346.589844 L 500.089844 354.980469 C 494.34375 360.941406 487.949219 365.152344 480.84375 368.832031 M 446.097656 378.128906 C 426.613281 379.289062 407.355469 377.066406 388.488281 371.6875 L 372.496094 321.800781 C 380.230469 329.378906 388.867188 336.203125 398.570312 342.125 C 415.574219 352.820312 434.351562 359.429688 454.691406 360.902344 Z M 418.804688 415.214844 C 414.796875 419.613281 410.933594 423.605469 406.332031 427.472656 L 390.121094 376.617188 C 408.117188 381.066406 424.980469 382.816406 443.191406 382.417969 C 436.320312 394.628906 427.984375 405.140625 418.804688 415.214844 M 398.425781 434.082031 L 390.472656 439.9375 C 387.121094 442.402344 383.785156 444.632812 380.238281 446.8125 L 375.285156 449.84375 L 368.527344 453.835938 C 362.507812 457.386719 351.667969 461.867188 345.058594 464.40625 C 346.417969 461.890625 347.78125 460.699219 349.402344 459.082031 C 355.8125 452.675781 360.238281 444.808594 363.125 436.128906 C 367.933594 421.65625 366.664062 406.820312 360.835938 392.035156 C 367.109375 397.53125 372.476562 403.035156 378.3125 408.355469 L 388.304688 417.480469 L 402.035156 430.914062 C 400.84375 432.28125 399.746094 433.105469 398.425781 434.082031 M 319.589844 396.914062 L 352.875 386.226562 C 358.835938 396.109375 361.765625 407.246094 361.894531 418.789062 C 361.484375 430.359375 358.019531 440.976562 351.261719 450.554688 C 343.164062 461.085938 332.457031 468.660156 319.597656 472.070312 Z M 246.582031 416.007812 C 246.210938 408.230469 248.0625 400.941406 251.148438 393.820312 C 260.617188 371.976562 284.355469 357.820312 308.09375 359.941406 C 324.464844 361.101562 339.601562 369.304688 350.226562 382.601562 L 324.914062 390.859375 Z M 315.542969 698.195312 L 308.964844 672.152344 L 279.832031 556.066406 L 260.75 479.253906 C 279.992188 481.109375 295.917969 480.640625 315.398438 477.453125 L 315.421875 689.882812 C 315.421875 692.972656 315.75 695.277344 315.542969 698.195312 M 309.238281 734.066406 L 310.734375 739.195312 L 295.84375 719.574219 L 309.519531 692.4375 L 315.496094 714.824219 C 309.492188 719.527344 307.382812 726.753906 309.238281 734.066406 M 313.292969 750.195312 L 280.976562 750.40625 L 293.738281 724.433594 Z M 246.324219 420.398438 L 308.941406 400.300781 L 315.390625 398.53125 L 315.429688 473.148438 C 281.320312 480.152344 248.796875 454.988281 246.324219 420.398438 M 254.277344 453.453125 C 256.976562 456.929688 259.503906 459.613281 262.542969 462.382812 C 269.433594 468.867188 277.546875 473.550781 286.5 476.070312 C 277.320312 476.304688 268.519531 475.972656 259.574219 474.808594 Z M 193.046875 453.851562 L 170.585938 439.65625 L 194.683594 414.375 C 209.746094 419.695312 225.464844 422.03125 241.722656 421.253906 L 243.226562 428.960938 L 255.0625 474.253906 C 232.5625 471.222656 213.054688 464.085938 193.046875 453.851562 M 99.722656 304.496094 C 100.535156 281.644531 106.363281 259.382812 117.578125 239.515625 C 130.675781 216.402344 149.75 197.429688 173.9375 185.308594 C 168.867188 197.351562 164.105469 209.066406 159.648438 221.339844 C 147.238281 230.890625 137.574219 242.828125 130.085938 256.648438 C 115.378906 285.621094 113.9375 320.074219 126.574219 350.085938 C 138.597656 378.671875 161.503906 401.09375 190.117188 412.933594 L 167.1875 437.136719 C 124.691406 405.765625 99.144531 358.148438 99.722656 304.496094 M 111.617188 386.128906 C 100.464844 372.039062 92.335938 356.484375 86.871094 339.316406 C 76.613281 307.09375 77.773438 273.074219 90.839844 241.894531 C 95.054688 231.84375 100.113281 222.78125 106.714844 213.992188 C 126.042969 188.300781 151.519531 171.21875 183.011719 163.003906 L 176.105469 179.863281 C 171.433594 181.902344 167.363281 183.964844 163.152344 186.644531 C 113.921875 215.9375 88.625 273.171875 97.121094 329.660156 C 101.367188 357.894531 110.363281 378.457031 126.75 402.484375 C 120.636719 398.011719 116.28125 392.019531 111.617188 386.128906 M 187.742188 163.035156 L 199.925781 197.359375 L 165.339844 217.632812 Z M 221.953125 225.859375 L 264.617188 279.515625 C 263.695312 287.027344 262.519531 294.199219 260.65625 302.023438 L 237.605469 302.15625 C 235.988281 295.039062 234.714844 288.644531 228.585938 284.410156 L 212.753906 273.484375 C 228.546875 261.449219 221.210938 243.796875 218.371094 226.78125 L 180.117188 222.476562 L 167.28125 221.164062 L 183.789062 211.683594 L 202.078125 200.929688 Z M 203.121094 229.21875 L 214.785156 230.570312 L 216.769531 240.765625 Z M 200.136719 274.746094 C 190.652344 276.769531 180.773438 274.507812 173.914062 267.457031 C 162.839844 256.070312 162.601562 240.652344 165.265625 225.507812 C 169.148438 225.660156 172.457031 225.90625 176.140625 226.308594 L 196.117188 228.484375 L 216.546875 245.988281 C 219.378906 248.421875 218.394531 257.769531 217.296875 260.734375 C 214.496094 268.289062 207.902344 273.089844 200.136719 274.746094 M 218.601562 324.441406 C 236.5 330.976562 258.199219 330.5 275.976562 322.703125 L 222.929688 378.71875 L 211.738281 390.035156 C 201.726562 381.617188 193.214844 372.894531 184.566406 363.847656 C 158.007812 336.089844 146.113281 297.773438 153.222656 259.847656 C 154.703125 251.957031 156.382812 244.5 158.855469 236.621094 C 159.214844 242.671875 159.410156 247.894531 160.617188 253.664062 C 167.355469 285.78125 187.238281 312.992188 218.601562 324.441406 M 220.976562 398.019531 C 218.992188 396.394531 217.136719 394.683594 215.367188 392.808594 L 273.527344 331.515625 C 264.105469 349.78125 255.949219 367.695312 249.621094 386.832031 C 245.15625 395.570312 242.460938 404.308594 241.925781 415.230469 Z M 193.636719 409.46875 C 184.714844 406.382812 176.652344 401.972656 168.90625 396.433594 C 148.726562 382.007812 133.558594 361.542969 126.613281 337.609375 C 115.308594 298.695312 126.460938 256.679688 156.640625 229.148438 C 146.113281 262.472656 142.40625 290.933594 154.679688 324.34375 C 160.578125 339.660156 169.128906 353.15625 180.171875 365.222656 C 189.308594 375.207031 198.734375 384.257812 208.886719 393.28125 Z M 212.191406 396.132812 L 237.5625 416.957031 C 224.136719 417.183594 210.726562 415.597656 197.808594 411.085938 Z M 284.792969 320.3125 L 302.710938 336.882812 L 326.953125 359.925781 C 302.386719 350.796875 277.679688 355.300781 258.125 375.449219 C 265.496094 356.292969 274.3125 338.234375 284.792969 320.3125 M 294.46875 309.742188 C 314.78125 326.601562 343.242188 329.785156 366.644531 316.777344 L 381.878906 364.953125 L 400.609375 423.542969 L 354.835938 380.382812 L 331.121094 357.925781 L 287.554688 317.03125 Z M 309.324219 294.003906 L 318.792969 283.949219 L 328.855469 273.378906 L 331.984375 270.082031 L 340.105469 261.488281 L 353.941406 246.902344 L 361.8125 238.628906 L 375.367188 224.210938 C 377.070312 222.402344 378.71875 220.738281 380.289062 218.785156 C 380.648438 218.339844 381.816406 217.386719 382.257812 217.714844 C 383.601562 218.707031 386.015625 222.265625 387.175781 224.035156 C 402.652344 247.636719 400.554688 278.835938 381.679688 299.582031 C 375.277344 306.613281 367.277344 312.953125 358.371094 316.144531 L 352.234375 318.34375 C 349.683594 319.257812 347.265625 319.625 344.179688 320.058594 C 327.367188 322.417969 310.398438 317.632812 297.414062 306.78125 Z M 300.484375 236.492188 C 321.527344 243.710938 342.171875 242.507812 361.8125 232.574219 L 349.660156 245.679688 L 311.628906 285.636719 C 316.800781 268.792969 312.957031 249.839844 300.484375 236.492188 M 290.546875 226.5 L 313.375 201.09375 C 318.917969 198.136719 325.488281 197.59375 331.503906 196.496094 L 337.015625 196.167969 C 352.972656 197.070312 367.503906 202.617188 378.800781 214.097656 C 370.140625 223.746094 359.421875 230.1875 347.402344 233.851562 C 340.5625 235.988281 333.90625 237.011719 326.703125 236.835938 C 313.855469 236.878906 301.621094 233.734375 290.546875 226.5 M 255.390625 170.867188 C 271.214844 175.613281 286.5625 176.980469 302.566406 176.324219 C 313.972656 175.851562 324.257812 172.980469 335.683594 169.773438 L 286.675781 224.300781 C 268.527344 211.859375 257.261719 192.765625 255.390625 170.867188 M 257.292969 218.464844 C 248.003906 214.25 242.210938 210.046875 235.332031 202.679688 C 228.65625 195.527344 224.914062 189.125 221 180.195312 C 220.210938 178.40625 219.570312 176.546875 219.113281 174.613281 L 217.792969 169.058594 C 217.464844 167.683594 216.855469 166.316406 216.808594 164.761719 L 216.570312 156.265625 C 216.554688 155.96875 216.816406 155.066406 216.9375 154.867188 C 217.089844 154.59375 217.800781 154.753906 218.289062 154.832031 L 227.066406 159.898438 C 228.707031 160.851562 230.371094 161.546875 232.105469 162.265625 C 237.667969 164.578125 242.941406 166.945312 248.773438 168.660156 C 249.484375 168.867188 250.628906 169.308594 251.015625 169.996094 C 251.484375 170.828125 251.125 173.050781 251.339844 174.628906 C 253.628906 190.949219 260.96875 206.191406 272.59375 217.867188 L 278.707031 224.003906 C 271.046875 223.476562 264.105469 221.554688 257.292969 218.464844 M 194.863281 131.367188 C 186.546875 122.835938 178.867188 113.90625 173.769531 103.050781 C 169.609375 94.175781 169.050781 84.597656 168.121094 74.964844 C 171.003906 77.09375 172.914062 79.0625 175.363281 81.238281 C 185.867188 90.542969 197.453125 98.179688 210.007812 104.488281 C 220.371094 109.492188 230.636719 113.433594 241.875 115.78125 C 250.445312 117.628906 258.640625 118.5 268.039062 117.546875 C 257.191406 130.917969 251.199219 147.417969 250.957031 165.089844 C 230.378906 158.539062 209.9375 146.839844 194.863281 131.367188 M 151.832031 115.402344 L 130.046875 129.476562 C 118.785156 136.75 110.066406 142.289062 107.570312 156.625 L 98.992188 146.089844 L 147.589844 94.089844 C 152.929688 88.214844 157.953125 82.769531 163.90625 77.09375 C 164.722656 86.769531 166.289062 95.019531 169.304688 103.601562 Z M 114.15625 171.898438 L 99.648438 182.140625 L 84.6875 192.589844 L 97.113281 150.695312 Z M 300.707031 99.144531 L 338.976562 163.730469 C 311.8125 174.910156 283.160156 174.621094 255.148438 166.449219 C 255.710938 135.488281 272.410156 110.867188 300.707031 99.144531 M 291.242188 75.101562 L 268.617188 36.792969 L 302.628906 51.9375 L 333.457031 81.4375 L 344.148438 92.289062 C 329.59375 89.417969 315.992188 89.632812 302.363281 94.160156 Z M 377.199219 33.800781 L 383.617188 47.8125 L 303.742188 47.859375 L 272.457031 33.785156 Z M 372.917969 14.664062 L 421.613281 14.804688 L 387.769531 46.433594 Z M 367.757812 67.039062 C 383.296875 62.421875 399.890625 62.09375 415.246094 66.300781 C 460.066406 78.582031 487.125 123.292969 477.453125 168.675781 C 474.492188 182.574219 468.484375 195.421875 459.210938 206.832031 C 457.46875 202.40625 455.507812 198.085938 452.640625 192.839844 C 462.25 178.171875 467.042969 161.042969 465.394531 143.617188 C 462.027344 108.027344 434.128906 80.238281 398.417969 77.496094 C 381.199219 76.167969 364.054688 80.976562 349.707031 91.191406 C 346.097656 88.121094 342.9375 85.054688 339.601562 81.445312 C 348.570312 75.070312 357.476562 70.09375 367.757812 67.039062 M 428.46875 241.78125 C 428.269531 256.007812 426.269531 269.480469 422.78125 283.074219 C 417.507812 302.40625 409.429688 320.320312 398.675781 337.140625 C 394.449219 334.515625 390.671875 331.792969 386.609375 328.632812 C 380.855469 324.183594 375.695312 319.648438 371.0625 314.257812 C 387.90625 303.292969 398.953125 285.8125 401.308594 265.488281 Z M 397.707031 140.085938 C 407.605469 154.335938 415.125 169.578125 420.195312 186.039062 C 425.285156 202.480469 428.367188 219.066406 428.277344 236.40625 L 402.003906 259.421875 C 401.761719 242.164062 395.976562 226.660156 384.632812 213.890625 C 401.410156 192.855469 406.546875 165.652344 397.707031 140.085938 M 360.667969 148.226562 L 383.328125 123.199219 C 403.738281 150.207031 402.003906 184.34375 381.648438 210.738281 C 364.871094 194.566406 341.433594 188.589844 319.238281 194.429688 Z M 380.679688 119.820312 L 342.9375 161.746094 L 304.933594 98.074219 C 311.414062 96.007812 317.605469 94.9375 324.28125 94.585938 C 345.929688 94.265625 366.421875 103.210938 380.679688 119.820312 M 441.929688 174.941406 C 455.832031 147.71875 444.890625 114.316406 417.292969 100.578125 C 400.449219 92.191406 382.703125 93.207031 366.0625 101.59375 C 361.371094 98.992188 356.964844 96.859375 351.925781 94.738281 C 372.015625 80.078125 398.074219 77.40625 420.40625 87.152344 C 459.539062 104.226562 473.195312 152.265625 450.386719 188.0625 Z M 384.3125 116.917969 C 379.265625 113.171875 375.949219 107.777344 369.972656 104.449219 C 374.984375 101.578125 379.375 100.144531 384.585938 99.320312 C 414.652344 94.53125 440.976562 115.867188 443.800781 146.074219 C 444.289062 154.472656 443.121094 162.476562 439.191406 170.714844 C 430.757812 158.9375 421.695312 148.664062 411.429688 138.855469 C 402.851562 130.664062 393.753906 123.925781 384.3125 116.917969 M 424.566406 158.578125 C 437.75 174.140625 448.25 191.3125 456.386719 210.578125 C 448.601562 218.570312 440.808594 225.605469 432.527344 232.765625 C 431.109375 196.238281 418.980469 162.011719 397.652344 132.183594 C 407.53125 140.40625 416.070312 149.175781 424.566406 158.578125 M 464.964844 236.390625 C 468.132812 249 470.125 261.558594 470.910156 274.625 C 471.652344 290.613281 470.402344 305.832031 467.1875 321.390625 C 464.699219 333.433594 461.746094 344.707031 456.554688 356.367188 C 438.664062 356.476562 417.5 348.972656 402.523438 339.523438 C 408.925781 328.632812 414.71875 318.113281 419.339844 306.621094 C 428.183594 284.683594 432.902344 261.746094 432.742188 238.171875 C 441.496094 230.804688 449.53125 223.683594 457.785156 215.273438 C 461.058594 222.21875 462.898438 229.179688 464.964844 236.390625 M 515.867188 299.460938 L 488.726562 320.3125 L 471.460938 333.617188 L 484.605469 343.84375 C 484.191406 354.78125 469.5 356.398438 461.171875 356.726562 C 465.652344 344.933594 469.277344 333.730469 471.460938 321.640625 C 474.0625 307.375 475.628906 293.566406 475.117188 279.019531 C 474.292969 255.527344 469.714844 232.78125 460.921875 210.914062 C 474.660156 195.246094 482.238281 175.691406 483.429688 155 C 484.839844 130.398438 475.699219 106.324219 459.21875 88.238281 C 446.449219 75.199219 433.648438 67.652344 416.269531 62.308594 C 398.914062 57.890625 380.992188 58.300781 363.980469 64.019531 C 353.996094 67.523438 344.898438 72.375 336.363281 78.839844 L 308.703125 51.859375 L 388.105469 51.660156 L 432.160156 10.773438 L 366.886719 10.742188 L 375.503906 29.792969 L 309.070312 29.726562 L 259.664062 29.726562 L 298.796875 95.800781 C 271.878906 105.707031 281.1875 117.148438 249.75 113.285156 C 217.664062 108.089844 189.332031 90.878906 166.921875 67.757812 L 94.351562 145.359375 L 77.703125 202.257812 L 119.980469 172.644531 L 112.265625 162.828125 C 109.183594 149.390625 119.492188 140.808594 129.871094 134.191406 L 145.464844 124.246094 L 171.300781 107.089844 C 174.433594 112.652344 177.804688 117.589844 181.574219 122.574219 C 182.277344 123.414062 183.070312 124.339844 183.804688 125.125 C 191.996094 135.238281 201.589844 143.632812 212.480469 151.128906 C 211.128906 177.828125 224.234375 203.417969 247.132812 217.394531 C 254.78125 222.074219 262.785156 225.46875 271.585938 227.027344 L 277.945312 228.15625 L 283.347656 229.011719 C 297.660156 234.382812 307.789062 250.535156 309.535156 265.601562 C 310.941406 277.84375 307.078125 289.332031 298.949219 298.4375 C 293.996094 303.984375 289.402344 310.152344 283.296875 314.457031 C 273.367188 321.472656 261.101562 323.59375 249.335938 324.96875 C 245.796875 325.378906 242.875 325.058594 239.5 324.792969 C 207.289062 322.242188 180.171875 299.503906 169.210938 268.882812 C 174.828125 273.539062 180.316406 277.707031 187.445312 278.5 C 192.796875 279.097656 203.488281 279.1875 208.390625 275.632812 C 214.914062 279.628906 221.472656 283.8125 227.738281 288.765625 C 229.777344 290.371094 231.011719 293.445312 231.707031 295.84375 L 234.675781 306.078125 L 263.535156 306.09375 C 266.238281 296.78125 267.832031 287.730469 268.632812 278.027344 L 248.269531 252.511719 L 207.933594 201.664062 C 206.375 199.6875 204.421875 198.109375 203.617188 195.792969 L 188.277344 151.710938 L 185.355469 158.304688 C 164.410156 163.371094 143.960938 172.589844 127.394531 186.488281 L 124.132812 189.222656 C 96.601562 212.328125 79.351562 245.6875 76.75 281.570312 L 76.085938 290.789062 L 76.085938 301.574219 C 76.964844 300.847656 76.445312 307.6875 76.574219 309.015625 C 78.78125 332.027344 85.886719 354.085938 98.03125 373.753906 C 107.394531 388.90625 118.730469 402.316406 132.429688 413.515625 L 145.136719 423.910156 C 173.171875 446.84375 190.695312 461.75 228.691406 472.78125 C 237.699219 475.398438 246.4375 476.917969 255.757812 478.488281 L 257.4375 483.710938 L 308.046875 685.492188 L 275.929688 750.675781 L 157.210938 750.675781 C 156.9375 752.285156 156.921875 753.652344 157.519531 754.75 L 437.335938 754.742188 C 437.917969 753.285156 437.894531 751.8125 437.09375 750.667969 L 319.808594 750.667969 C 315.613281 740.164062 306.414062 724.898438 319.589844 717.03125 L 319.40625 587.070312 L 319.535156 532.078125 L 319.488281 476.359375 C 373.382812 464.726562 421.34375 429.449219 448.601562 381.953125 C 451.730469 381.25 454.433594 380.855469 457.476562 380.367188 C 467.203125 378.824219 476.214844 375.640625 484.957031 371.136719 C 492.640625 367.175781 499 361.925781 505.074219 355.820312 L 517.921875 300.4375 C 518.105469 299.660156 518.28125 299.023438 518.464844 298.636719 L 518.464844 297.855469 C 517.675781 298.261719 516.738281 298.796875 515.867188 299.460938 "/>
<path fill-rule="nonzero" fill="rgb(54.640198%, 45.556641%, 29.109192%)" fill-opacity="1" d="M 114.15625 171.898438 L 99.648438 182.140625 L 84.6875 192.589844 L 97.113281 150.695312 Z M 114.15625 171.898438 "/>
<path fill-rule="nonzero" fill="rgb(54.640198%, 45.556641%, 29.109192%)" fill-opacity="1" d="M 308.96875 672.15625 L 279.832031 556.066406 L 260.753906 479.253906 C 279.992188 481.109375 295.917969 480.640625 315.398438 477.457031 L 315.425781 689.878906 C 315.425781 692.976562 315.75 695.277344 315.542969 698.199219 Z M 308.96875 672.15625 "/>
<path fill-rule="nonzero" fill="rgb(54.640198%, 45.556641%, 29.109192%)" fill-opacity="1" d="M 218.601562 324.445312 C 236.5 330.980469 258.199219 330.496094 275.976562 322.707031 L 222.933594 378.722656 L 211.738281 390.03125 C 201.730469 381.621094 193.214844 372.890625 184.566406 363.851562 C 158.011719 336.085938 146.113281 297.769531 153.226562 259.851562 C 154.707031 251.957031 156.386719 244.5 158.855469 236.617188 C 159.214844 242.671875 159.40625 247.894531 160.617188 253.664062 C 167.351562 285.78125 187.234375 312.992188 218.601562 324.445312 "/>
<path fill-rule="nonzero" fill="rgb(54.640198%, 45.556641%, 29.109192%)" fill-opacity="1" d="M 190.121094 412.933594 L 167.1875 437.136719 C 124.691406 405.765625 99.148438 358.152344 99.722656 304.492188 C 100.535156 281.648438 106.363281 259.382812 117.578125 239.519531 C 130.679688 216.402344 149.75 197.433594 173.941406 185.3125 C 168.867188 197.351562 164.101562 209.066406 159.648438 221.339844 C 147.234375 230.894531 137.574219 242.832031 130.085938 256.652344 C 115.375 285.621094 113.941406 320.070312 126.570312 350.085938 C 138.597656 378.667969 161.507812 401.09375 190.121094 412.933594 "/>
<path fill-rule="nonzero" fill="rgb(20.933533%, 24.909973%, 26.298523%)" fill-opacity="1" d="M 456.554688 356.363281 C 438.660156 356.480469 417.5 348.976562 402.523438 339.523438 C 408.925781 328.632812 414.714844 318.109375 419.34375 306.617188 C 428.183594 284.683594 432.902344 261.746094 432.742188 238.175781 C 441.496094 230.804688 449.527344 223.6875 457.785156 215.273438 C 461.0625 222.214844 462.902344 229.179688 464.96875 236.390625 C 468.136719 249 470.128906 261.558594 470.90625 274.625 C 471.652344 290.613281 470.402344 305.828125 467.1875 321.390625 C 464.699219 333.433594 461.746094 344.710938 456.554688 356.363281 "/>
<path fill-rule="nonzero" fill="rgb(13.644409%, 27.981567%, 48.516846%)" fill-opacity="1" d="M 344.183594 320.058594 C 327.367188 322.417969 310.394531 317.628906 297.410156 306.785156 L 309.328125 294.003906 L 318.789062 283.945312 L 328.855469 273.375 L 331.984375 270.082031 L 340.105469 261.488281 L 353.941406 246.902344 L 361.8125 238.628906 L 375.367188 224.214844 C 377.070312 222.402344 378.714844 220.738281 380.292969 218.785156 C 380.652344 218.339844 381.816406 217.382812 382.257812 217.710938 C 383.601562 218.703125 386.019531 222.269531 387.175781 224.035156 C 402.65625 247.636719 400.558594 278.835938 381.679688 299.578125 C 375.28125 306.613281 367.277344 312.953125 358.367188 316.144531 L 352.238281 318.34375 C 349.683594 319.257812 347.269531 319.625 344.183594 320.058594 "/>
<path fill-rule="nonzero" fill="rgb(100%, 100%, 100%)" fill-opacity="1" d="M 208.886719 393.277344 L 193.636719 409.472656 C 184.71875 406.382812 176.648438 401.972656 168.902344 396.4375 C 148.722656 382.007812 133.558594 361.539062 126.609375 337.609375 C 115.308594 298.691406 126.460938 256.679688 156.636719 229.152344 C 146.109375 262.46875 142.40625 290.933594 154.679688 324.34375 C 160.578125 339.664062 169.132812 353.160156 180.171875 365.222656 C 189.308594 375.207031 198.734375 384.261719 208.886719 393.277344 "/>
<path fill-rule="nonzero" fill="rgb(100%, 100%, 100%)" fill-opacity="1" d="M 400.609375 423.546875 L 354.832031 380.382812 L 331.121094 357.925781 L 287.554688 317.035156 L 294.46875 309.742188 C 314.78125 326.601562 343.246094 329.785156 366.644531 316.773438 L 381.878906 364.953125 Z M 400.609375 423.546875 "/>
<path fill-rule="nonzero" fill="rgb(100%, 100%, 100%)" fill-opacity="1" d="M 338.976562 163.730469 C 311.816406 174.90625 283.160156 174.617188 255.148438 166.453125 C 255.710938 135.484375 272.410156 110.871094 300.707031 99.144531 Z M 338.976562 163.730469 "/>
<path fill-rule="nonzero" fill="rgb(20.933533%, 24.909973%, 26.298523%)" fill-opacity="1" d="M 97.121094 329.660156 C 101.367188 357.894531 110.363281 378.453125 126.75 402.484375 C 120.640625 398.007812 116.28125 392.015625 111.621094 386.132812 C 100.464844 372.042969 92.339844 356.488281 86.871094 339.316406 C 76.609375 307.09375 77.773438 273.078125 90.84375 241.894531 C 95.058594 231.839844 100.109375 222.78125 106.714844 213.996094 C 126.046875 188.300781 151.519531 171.21875 183.011719 163.003906 L 176.105469 179.863281 C 171.433594 181.902344 167.363281 183.964844 163.152344 186.644531 C 113.917969 215.941406 88.621094 273.171875 97.121094 329.660156 "/>
<path fill-rule="nonzero" fill="rgb(100%, 100%, 100%)" fill-opacity="1" d="M 315.429688 473.148438 C 281.324219 480.152344 248.796875 454.992188 246.320312 420.402344 L 308.945312 400.300781 L 315.386719 398.53125 Z M 315.429688 473.148438 "/>
<path fill-rule="nonzero" fill="rgb(100%, 100%, 100%)" fill-opacity="1" d="M 381.644531 210.738281 C 364.875 194.570312 341.4375 188.589844 319.234375 194.433594 L 360.671875 148.222656 L 383.328125 123.199219 C 403.738281 150.210938 402.003906 184.34375 381.644531 210.738281 "/>
<path fill-rule="nonzero" fill="rgb(54.640198%, 45.556641%, 29.109192%)" fill-opacity="1" d="M 452.640625 192.84375 C 462.253906 178.175781 467.042969 161.042969 465.394531 143.617188 C 462.023438 108.023438 434.132812 80.242188 398.417969 77.492188 C 381.203125 76.167969 364.054688 80.976562 349.707031 91.191406 C 346.097656 88.125 342.941406 85.050781 339.605469 81.449219 C 348.566406 75.066406 357.472656 70.09375 367.757812 67.035156 C 383.296875 62.417969 399.886719 62.09375 415.242188 66.296875 C 460.070312 78.578125 487.125 123.296875 477.457031 168.679688 C 474.496094 182.570312 468.480469 195.425781 459.210938 206.828125 C 457.46875 202.40625 455.507812 198.089844 452.640625 192.84375 "/>
<path fill-rule="nonzero" fill="rgb(20.933533%, 24.909973%, 26.298523%)" fill-opacity="1" d="M 324.910156 390.859375 L 246.578125 416.007812 C 246.214844 408.230469 248.058594 400.941406 251.148438 393.816406 C 260.613281 371.976562 284.351562 357.824219 308.097656 359.9375 C 324.464844 361.101562 339.601562 369.300781 350.226562 382.601562 Z M 324.910156 390.859375 "/>
<path fill-rule="nonzero" fill="rgb(20.933533%, 24.909973%, 26.298523%)" fill-opacity="1" d="M 255.058594 474.257812 C 232.5625 471.222656 213.058594 464.082031 193.046875 453.847656 L 170.585938 439.65625 L 194.6875 414.371094 C 209.742188 419.699219 225.464844 422.027344 241.722656 421.253906 L 243.234375 428.957031 Z M 255.058594 474.257812 "/>
<path fill-rule="nonzero" fill="rgb(54.640198%, 45.556641%, 29.109192%)" fill-opacity="1" d="M 351.257812 450.554688 C 343.160156 461.085938 332.453125 468.664062 319.601562 472.066406 L 319.59375 396.914062 L 352.878906 386.222656 C 358.835938 396.105469 361.761719 407.25 361.894531 418.792969 C 361.484375 430.359375 358.019531 440.976562 351.257812 450.554688 "/>
<path fill-rule="nonzero" fill="rgb(20.933533%, 24.909973%, 26.298523%)" fill-opacity="1" d="M 342.941406 161.742188 L 304.933594 98.074219 C 311.417969 96.011719 317.605469 94.9375 324.277344 94.589844 C 345.929688 94.265625 366.425781 103.210938 380.675781 119.824219 Z M 342.941406 161.742188 "/>
<path fill-rule="nonzero" fill="rgb(54.640198%, 45.556641%, 29.109192%)" fill-opacity="1" d="M 261.09375 290.78125 C 262.488281 288.457031 261.585938 286.894531 260.839844 285.148438 C 258.816406 281.929688 256.238281 279.445312 252.808594 277.390625 C 252.652344 284.171875 255.453125 287.003906 261.09375 290.78125 M 237.601562 302.160156 C 235.992188 295.035156 234.71875 288.644531 228.589844 284.410156 L 212.753906 273.480469 C 228.542969 261.449219 221.210938 243.796875 218.367188 226.777344 L 180.113281 222.472656 L 167.28125 221.160156 L 183.785156 211.683594 L 202.082031 200.929688 L 221.953125 225.859375 L 264.621094 279.515625 C 263.691406 287.03125 262.515625 294.199219 260.65625 302.023438 Z M 237.601562 302.160156 "/>
<path fill-rule="nonzero" fill="rgb(54.640198%, 45.556641%, 29.109192%)" fill-opacity="1" d="M 347.402344 233.855469 C 340.5625 235.988281 333.910156 237.011719 326.707031 236.835938 C 313.855469 236.878906 301.617188 233.734375 290.546875 226.503906 L 313.371094 201.09375 C 318.921875 198.140625 325.488281 197.589844 331.503906 196.496094 L 337.019531 196.167969 C 352.96875 197.070312 367.5 202.621094 378.796875 214.101562 C 370.140625 223.746094 359.421875 230.1875 347.402344 233.855469 "/>
<path fill-rule="nonzero" fill="rgb(20.933533%, 24.909973%, 26.298523%)" fill-opacity="1" d="M 402.007812 259.421875 C 401.761719 242.164062 395.976562 226.65625 384.628906 213.890625 C 401.40625 192.859375 406.546875 165.652344 397.707031 140.089844 C 407.605469 154.339844 415.125 169.582031 420.203125 186.039062 C 425.285156 202.480469 428.363281 219.0625 428.277344 236.40625 Z M 402.007812 259.421875 "/>
<path fill-rule="nonzero" fill="rgb(100%, 100%, 100%)" fill-opacity="1" d="M 386.605469 328.636719 C 380.855469 324.183594 375.691406 319.648438 371.058594 314.253906 C 387.90625 303.292969 398.957031 285.8125 401.308594 265.492188 L 428.46875 241.777344 C 428.265625 256.007812 426.269531 269.484375 422.785156 283.070312 C 417.507812 302.410156 409.429688 320.324219 398.675781 337.136719 C 394.453125 334.515625 390.675781 331.792969 386.605469 328.636719 "/>
<path fill-rule="nonzero" fill="rgb(20.933533%, 24.909973%, 26.298523%)" fill-opacity="1" d="M 441.925781 174.9375 C 455.835938 147.71875 444.886719 114.3125 417.296875 100.578125 C 400.449219 92.195312 382.699219 93.210938 366.0625 101.59375 C 361.375 98.992188 356.96875 96.859375 351.925781 94.734375 C 372.015625 80.082031 398.070312 77.402344 420.410156 87.148438 C 459.539062 104.222656 473.195312 152.265625 450.386719 188.066406 Z M 441.925781 174.9375 "/>
<path fill-rule="nonzero" fill="rgb(20.933533%, 24.909973%, 26.298523%)" fill-opacity="1" d="M 286.675781 224.300781 C 268.523438 211.859375 257.257812 192.765625 255.394531 170.867188 C 271.214844 175.613281 286.5625 176.984375 302.566406 176.320312 C 313.980469 175.847656 324.253906 172.976562 335.679688 169.773438 Z M 286.675781 224.300781 "/>
<path fill-rule="nonzero" fill="rgb(20.933533%, 24.909973%, 26.298523%)" fill-opacity="1" d="M 216.542969 245.992188 C 219.382812 248.425781 218.390625 257.769531 217.292969 260.738281 C 214.5 268.289062 207.902344 273.089844 200.132812 274.75 C 190.65625 276.773438 180.769531 274.503906 173.914062 267.457031 C 162.839844 256.074219 162.601562 240.652344 165.265625 225.507812 C 169.144531 225.660156 172.460938 225.90625 176.144531 226.308594 L 196.117188 228.488281 Z M 216.542969 245.992188 "/>
<path fill-rule="nonzero" fill="rgb(54.640198%, 45.556641%, 29.109192%)" fill-opacity="1" d="M 454.6875 360.898438 L 446.097656 378.128906 C 426.609375 379.289062 407.359375 377.066406 388.492188 371.683594 L 372.492188 321.804688 C 380.230469 329.378906 388.867188 336.207031 398.566406 342.125 C 415.574219 352.820312 434.355469 359.425781 454.6875 360.898438 "/>
<path fill-rule="nonzero" fill="rgb(13.644409%, 27.981567%, 48.516846%)" fill-opacity="1" d="M 278.703125 224 C 271.050781 223.472656 264.105469 221.554688 257.296875 218.464844 C 248.003906 214.246094 242.210938 210.054688 235.332031 202.683594 C 228.65625 195.527344 224.914062 189.128906 221 180.199219 C 220.210938 178.402344 219.570312 176.550781 219.113281 174.613281 L 217.796875 169.0625 C 217.46875 167.679688 216.855469 166.3125 216.8125 164.761719 L 216.566406 156.265625 C 216.558594 155.964844 216.816406 155.070312 216.933594 154.867188 C 217.089844 154.59375 217.804688 154.753906 218.285156 154.832031 L 227.0625 159.902344 C 228.703125 160.847656 230.371094 161.542969 232.109375 162.269531 C 237.667969 164.578125 242.941406 166.949219 248.773438 168.660156 C 249.484375 168.871094 250.632812 169.304688 251.015625 169.992188 C 251.484375 170.832031 251.125 173.054688 251.34375 174.628906 C 253.632812 190.949219 260.96875 206.191406 272.59375 217.863281 Z M 278.703125 224 "/>
<path fill-rule="nonzero" fill="rgb(20.933533%, 24.909973%, 26.298523%)" fill-opacity="1" d="M 344.144531 92.285156 C 329.589844 89.414062 315.992188 89.632812 302.371094 94.160156 L 291.246094 75.105469 L 268.613281 36.796875 L 302.625 51.941406 L 333.457031 81.441406 Z M 344.144531 92.285156 "/>
<path fill-rule="nonzero" fill="rgb(54.640198%, 45.556641%, 29.109192%)" fill-opacity="1" d="M 456.386719 210.578125 C 448.601562 218.570312 440.808594 225.605469 432.527344 232.765625 C 431.109375 196.242188 418.980469 162.011719 397.652344 132.183594 C 407.527344 140.40625 416.070312 149.175781 424.566406 158.574219 C 437.753906 174.140625 448.25 191.308594 456.386719 210.578125 "/>
<path fill-rule="nonzero" fill="rgb(54.640198%, 45.556641%, 29.109192%)" fill-opacity="1" d="M 418.804688 415.214844 C 414.796875 419.613281 410.929688 423.605469 406.328125 427.472656 L 390.121094 376.613281 C 408.117188 381.066406 424.976562 382.816406 443.195312 382.417969 C 436.320312 394.628906 427.984375 405.140625 418.804688 415.214844 "/>
<path fill-rule="nonzero" fill="rgb(13.644409%, 27.981567%, 48.516846%)" fill-opacity="1" d="M 380.234375 446.808594 L 375.289062 449.84375 L 368.527344 453.832031 C 362.507812 457.382812 351.664062 461.871094 345.058594 464.40625 C 346.417969 461.894531 347.78125 460.703125 349.402344 459.082031 C 355.8125 452.675781 360.238281 444.8125 363.121094 436.132812 C 367.933594 421.65625 366.664062 406.816406 360.835938 392.03125 C 367.109375 397.527344 372.480469 403.035156 378.3125 408.355469 L 388.308594 417.476562 L 402.035156 430.910156 C 400.839844 432.28125 399.742188 433.105469 398.421875 434.078125 L 390.46875 439.9375 C 387.117188 442.40625 383.78125 444.632812 380.234375 446.808594 "/>
<path fill-rule="nonzero" fill="rgb(100%, 100%, 100%)" fill-opacity="1" d="M 241.921875 415.226562 L 220.976562 398.019531 C 218.996094 396.394531 217.140625 394.683594 215.367188 392.808594 L 273.527344 331.515625 C 264.101562 349.785156 255.953125 367.695312 249.621094 386.832031 C 245.15625 395.570312 242.457031 404.308594 241.921875 415.226562 "/>
<path fill-rule="nonzero" fill="rgb(54.640198%, 45.556641%, 29.109192%)" fill-opacity="1" d="M 326.949219 359.925781 C 302.386719 350.800781 277.679688 355.300781 258.128906 375.449219 C 265.492188 356.292969 274.3125 338.234375 284.796875 320.3125 L 302.710938 336.882812 Z M 326.949219 359.925781 "/>
<path fill-rule="nonzero" fill="rgb(54.640198%, 45.556641%, 29.109192%)" fill-opacity="1" d="M 311.628906 285.636719 C 316.796875 268.789062 312.957031 249.835938 300.488281 236.492188 C 321.523438 243.710938 342.171875 242.511719 361.808594 232.574219 L 349.664062 245.675781 Z M 311.628906 285.636719 "/>
<path fill-rule="nonzero" fill="rgb(54.640198%, 45.556641%, 29.109192%)" fill-opacity="1" d="M 199.921875 197.355469 L 165.339844 217.632812 L 187.742188 163.039062 Z M 199.921875 197.355469 "/>
<path fill-rule="nonzero" fill="rgb(20.933533%, 24.909973%, 26.298523%)" fill-opacity="1" d="M 478.277344 333.925781 C 480.71875 331.839844 482.726562 330.160156 484.945312 328.457031 L 497.757812 318.628906 L 511.953125 307.96875 L 501.917969 351.28125 Z M 478.277344 333.925781 "/>
<path fill-rule="nonzero" fill="rgb(54.640198%, 45.556641%, 29.109192%)" fill-opacity="1" d="M 451.441406 377.503906 L 459.460938 361.121094 C 465.6875 360.691406 471.789062 360.183594 477.554688 357.929688 C 482.746094 355.664062 486.824219 352.273438 488.660156 346.589844 L 500.09375 354.984375 C 494.34375 360.941406 487.945312 365.152344 480.84375 368.828125 C 471.691406 373.117188 462.59375 376.097656 451.441406 377.503906 "/>
<path fill-rule="nonzero" fill="rgb(20.933533%, 24.909973%, 26.298523%)" fill-opacity="1" d="M 313.296875 750.195312 L 280.976562 750.410156 L 293.742188 724.429688 Z M 313.296875 750.195312 "/>
<path fill-rule="nonzero" fill="rgb(54.640198%, 45.556641%, 29.109192%)" fill-opacity="1" d="M 309.238281 734.066406 L 310.734375 739.191406 L 295.847656 719.574219 L 309.515625 692.4375 L 315.496094 714.824219 C 309.488281 719.523438 307.386719 726.757812 309.238281 734.066406 "/>
<path fill-rule="nonzero" fill="rgb(100%, 100%, 100%)" fill-opacity="1" d="M 237.5625 416.960938 C 224.136719 417.183594 210.726562 415.597656 197.804688 411.082031 L 212.191406 396.128906 Z M 237.5625 416.960938 "/>
<path fill-rule="nonzero" fill="rgb(54.640198%, 45.556641%, 29.109192%)" fill-opacity="1" d="M 286.5 476.074219 C 277.320312 476.304688 268.515625 475.976562 259.574219 474.804688 L 254.28125 453.449219 C 256.972656 456.929688 259.503906 459.613281 262.542969 462.382812 C 269.433594 468.867188 277.546875 473.546875 286.5 476.074219 "/>
<path fill-rule="nonzero" fill="rgb(100%, 100%, 100%)" fill-opacity="1" d="M 214.789062 230.574219 L 216.765625 240.761719 L 203.121094 229.222656 Z M 214.789062 230.574219 "/>
<path fill-rule="nonzero" fill="rgb(12.617493%, 14.002991%, 14.807129%)" fill-opacity="1" d="M 261.09375 290.78125 C 255.453125 287.003906 252.652344 284.171875 252.808594 277.390625 C 256.238281 279.445312 258.816406 281.929688 260.839844 285.148438 C 261.585938 286.894531 262.488281 288.457031 261.09375 290.78125 "/>
<path fill-rule="nonzero" fill="rgb(54.640198%, 45.556641%, 29.109192%)" fill-opacity="1" d="M 268.042969 117.546875 C 257.195312 130.914062 251.195312 147.414062 250.957031 165.09375 C 230.378906 158.539062 209.9375 146.84375 194.859375 131.367188 C 186.546875 122.835938 178.867188 113.902344 173.773438 103.050781 C 169.605469 94.179688 169.046875 84.601562 168.125 74.964844 C 171.003906 77.09375 172.910156 79.066406 175.367188 81.238281 C 185.867188 90.542969 197.453125 98.175781 210.003906 104.496094 C 220.371094 109.488281 230.632812 113.433594 241.875 115.777344 C 250.445312 117.632812 258.636719 118.503906 268.042969 117.546875 "/>
<path fill-rule="nonzero" fill="rgb(54.640198%, 45.556641%, 29.109192%)" fill-opacity="1" d="M 383.613281 47.808594 L 303.746094 47.859375 L 272.457031 33.785156 L 377.199219 33.800781 Z M 383.613281 47.808594 "/>
<path fill-rule="nonzero" fill="rgb(20.933533%, 24.909973%, 26.298523%)" fill-opacity="1" d="M 130.046875 129.476562 C 118.789062 136.75 110.0625 142.289062 107.570312 156.621094 L 98.996094 146.085938 L 147.589844 94.089844 C 152.929688 88.210938 157.949219 82.765625 163.902344 77.097656 C 164.71875 86.765625 166.289062 95.015625 169.304688 103.601562 L 151.828125 115.40625 Z M 130.046875 129.476562 "/>
<path fill-rule="nonzero" fill="rgb(54.640198%, 45.556641%, 29.109192%)" fill-opacity="1" d="M 421.617188 14.808594 L 387.765625 46.429688 L 372.921875 14.664062 Z M 421.617188 14.808594 "/>
<path fill-rule="nonzero" fill="rgb(12.617493%, 14.002991%, 14.807129%)" fill-opacity="1" d="M 163.542969 770.339844 L 163.542969 824.1875 L 183.054688 824.1875 L 183.054688 830.777344 L 156.695312 830.777344 L 156.695312 770.339844 Z M 163.542969 770.339844 "/>
<path fill-rule="nonzero" fill="rgb(12.617493%, 14.002991%, 14.807129%)" fill-opacity="1" d="M 193.71875 830.777344 L 186.871094 830.777344 L 186.871094 770.339844 L 193.71875 770.339844 Z M 193.71875 830.777344 "/>
<path fill-rule="nonzero" fill="rgb(12.617493%, 14.002991%, 14.807129%)" fill-opacity="1" d="M 204.386719 824.1875 L 208.113281 824.1875 C 210.023438 824.1875 211.929688 823.871094 213.839844 823.234375 C 215.746094 822.597656 217.464844 821.628906 218.996094 820.328125 C 220.527344 819.027344 221.773438 817.367188 222.726562 815.34375 C 223.679688 813.320312 224.15625 810.921875 224.15625 808.144531 C 224.15625 805.371094 223.679688 802.988281 222.726562 800.992188 C 221.773438 798.996094 220.542969 797.335938 219.039062 796.007812 C 217.535156 794.675781 215.816406 793.695312 213.882812 793.058594 C 211.941406 792.421875 210.023438 792.105469 208.113281 792.105469 L 204.386719 792.105469 Z M 211.496094 785.511719 C 212.710938 785.511719 213.734375 785.09375 214.574219 784.253906 C 215.410156 783.417969 215.832031 782.421875 215.832031 781.265625 C 215.832031 780.050781 215.398438 779.023438 214.53125 778.1875 C 213.664062 777.347656 212.652344 776.929688 211.496094 776.929688 L 204.386719 776.929688 L 204.386719 785.511719 Z M 197.535156 770.339844 L 211.496094 770.339844 C 213.058594 770.339844 214.515625 770.613281 215.875 771.160156 C 217.234375 771.710938 218.417969 772.476562 219.429688 773.460938 C 220.441406 774.445312 221.238281 775.597656 221.816406 776.929688 C 222.390625 778.257812 222.683594 779.703125 222.683594 781.265625 C 222.683594 784.039062 221.757812 786.4375 219.90625 788.460938 C 223.316406 790.3125 226.019531 792.941406 228.015625 796.351562 C 230.007812 799.765625 231.007812 803.695312 231.007812 808.144531 C 231.007812 811.441406 230.429688 814.476562 229.273438 817.25 C 228.117188 820.027344 226.511719 822.410156 224.460938 824.40625 C 222.40625 826.398438 219.996094 827.960938 217.21875 829.089844 C 214.445312 830.214844 211.410156 830.777344 208.113281 830.777344 L 197.535156 830.777344 Z M 197.535156 770.339844 "/>
<path fill-rule="nonzero" fill="rgb(12.617493%, 14.002991%, 14.807129%)" fill-opacity="1" d="M 260.316406 770.339844 L 260.316406 776.929688 L 240.804688 776.929688 L 240.804688 809.011719 L 256.933594 809.011719 L 256.933594 815.601562 L 240.804688 815.601562 L 240.804688 824.1875 L 260.316406 824.1875 L 260.316406 830.777344 L 233.957031 830.777344 L 233.957031 770.339844 Z M 260.316406 770.339844 "/>
<path fill-rule="nonzero" fill="rgb(12.617493%, 14.002991%, 14.807129%)" fill-opacity="1" d="M 270.980469 809.011719 L 274.710938 809.011719 C 276.617188 809.011719 278.539062 808.695312 280.476562 808.058594 C 282.414062 807.425781 284.132812 806.441406 285.636719 805.109375 C 287.140625 803.78125 288.371094 802.121094 289.324219 800.125 C 290.277344 798.128906 290.753906 795.746094 290.753906 792.96875 C 290.753906 790.195312 290.277344 787.8125 289.324219 785.816406 C 288.371094 783.820312 287.125 782.160156 285.59375 780.832031 C 284.0625 779.5 282.34375 778.519531 280.433594 777.882812 C 278.527344 777.246094 276.617188 776.929688 274.710938 776.929688 L 270.980469 776.929688 Z M 264.132812 770.339844 L 274.710938 770.339844 C 278.007812 770.339844 281.042969 770.902344 283.816406 772.027344 C 286.589844 773.15625 289.003906 774.71875 291.058594 776.710938 C 293.109375 778.707031 294.710938 781.089844 295.871094 783.867188 C 297.027344 786.640625 297.605469 789.675781 297.605469 792.96875 C 297.605469 797.652344 296.492188 801.757812 294.265625 805.285156 C 292.039062 808.8125 289.046875 811.472656 285.289062 813.261719 L 297.605469 830.777344 L 289.539062 830.777344 L 279.132812 815.257812 C 277.804688 815.488281 276.445312 815.601562 275.058594 815.601562 L 270.980469 815.601562 L 270.980469 830.777344 L 264.132812 830.777344 Z M 264.132812 770.339844 "/>
<path fill-rule="nonzero" fill="rgb(12.617493%, 14.002991%, 14.807129%)" fill-opacity="1" d="M 336.800781 770.339844 L 316.335938 831.039062 L 295.78125 770.339844 L 302.632812 770.339844 L 316.335938 810.746094 L 329.949219 770.339844 Z M 336.800781 770.339844 "/>
<path fill-rule="nonzero" fill="rgb(12.617493%, 14.002991%, 14.807129%)" fill-opacity="1" d="M 346.597656 830.777344 L 339.746094 830.777344 L 339.746094 770.339844 L 346.597656 770.339844 Z M 346.597656 830.777344 "/>
<path fill-rule="nonzero" fill="rgb(12.617493%, 14.002991%, 14.807129%)" fill-opacity="1" d="M 357.261719 770.339844 L 357.261719 824.1875 L 376.773438 824.1875 L 376.773438 830.777344 L 350.410156 830.777344 L 350.410156 770.339844 Z M 357.261719 770.339844 "/>
<path fill-rule="nonzero" fill="rgb(12.617493%, 14.002991%, 14.807129%)" fill-opacity="1" d="M 387.4375 770.339844 L 387.4375 824.1875 L 406.949219 824.1875 L 406.949219 830.777344 L 380.589844 830.777344 L 380.589844 770.339844 Z M 387.4375 770.339844 "/>
<path fill-rule="nonzero" fill="rgb(12.617493%, 14.002991%, 14.807129%)" fill-opacity="1" d="M 437.125 770.339844 L 437.125 776.929688 L 417.617188 776.929688 L 417.617188 809.011719 L 433.746094 809.011719 L 433.746094 815.601562 L 417.617188 815.601562 L 417.617188 824.1875 L 437.125 824.1875 L 437.125 830.777344 L 410.765625 830.777344 L 410.765625 770.339844 Z M 437.125 770.339844 "/>
</svg>
